G04 #@! TF.FileFunction,Copper,L2,Bot,Signal*
%FSLAX46Y46*%
G04 Gerber Fmt 4.6, Leading zero omitted, Abs format (unit mm)*
G04 Created by KiCad (PCBNEW (2014-12-04 BZR 5312)-product) date 9.1.2015 14:21:54*
%MOMM*%
G01*
G04 APERTURE LIST*
%ADD10C,0.100000*%
%ADD11C,0.190000*%
%ADD12C,0.300000*%
%ADD13C,0.381000*%
%ADD14R,2.032000X2.032000*%
%ADD15O,2.032000X2.032000*%
%ADD16R,1.727200X1.727200*%
%ADD17O,1.727200X1.727200*%
%ADD18O,2.999740X5.001260*%
%ADD19C,0.889000*%
%ADD20C,0.600000*%
%ADD21C,0.254000*%
G04 APERTURE END LIST*
D10*
D11*
X93945001Y-74003810D02*
X93945001Y-73243810D01*
X93619286Y-74003810D02*
X93619286Y-73605714D01*
X93655477Y-73533333D01*
X93727858Y-73497143D01*
X93836429Y-73497143D01*
X93908810Y-73533333D01*
X93945001Y-73569524D01*
X93365953Y-73497143D02*
X93076429Y-73497143D01*
X93257382Y-73243810D02*
X93257382Y-73895238D01*
X93221191Y-73967619D01*
X93148810Y-74003810D01*
X93076429Y-74003810D01*
X92931667Y-73497143D02*
X92642143Y-73497143D01*
X92823096Y-73243810D02*
X92823096Y-73895238D01*
X92786905Y-73967619D01*
X92714524Y-74003810D01*
X92642143Y-74003810D01*
X92388810Y-73497143D02*
X92388810Y-74257143D01*
X92388810Y-73533333D02*
X92316429Y-73497143D01*
X92171667Y-73497143D01*
X92099286Y-73533333D01*
X92063095Y-73569524D01*
X92026905Y-73641905D01*
X92026905Y-73859048D01*
X92063095Y-73931429D01*
X92099286Y-73967619D01*
X92171667Y-74003810D01*
X92316429Y-74003810D01*
X92388810Y-73967619D01*
X91737381Y-73967619D02*
X91665000Y-74003810D01*
X91520238Y-74003810D01*
X91447857Y-73967619D01*
X91411667Y-73895238D01*
X91411667Y-73859048D01*
X91447857Y-73786667D01*
X91520238Y-73750476D01*
X91628810Y-73750476D01*
X91701191Y-73714286D01*
X91737381Y-73641905D01*
X91737381Y-73605714D01*
X91701191Y-73533333D01*
X91628810Y-73497143D01*
X91520238Y-73497143D01*
X91447857Y-73533333D01*
X91085953Y-73931429D02*
X91049762Y-73967619D01*
X91085953Y-74003810D01*
X91122143Y-73967619D01*
X91085953Y-73931429D01*
X91085953Y-74003810D01*
X91085953Y-73533333D02*
X91049762Y-73569524D01*
X91085953Y-73605714D01*
X91122143Y-73569524D01*
X91085953Y-73533333D01*
X91085953Y-73605714D01*
X90181190Y-73207619D02*
X90832619Y-74184762D01*
X89385000Y-73207619D02*
X90036429Y-74184762D01*
X88805953Y-73497143D02*
X88805953Y-74112381D01*
X88842144Y-74184762D01*
X88878334Y-74220952D01*
X88950715Y-74257143D01*
X89059287Y-74257143D01*
X89131668Y-74220952D01*
X88805953Y-73967619D02*
X88878334Y-74003810D01*
X89023096Y-74003810D01*
X89095477Y-73967619D01*
X89131668Y-73931429D01*
X89167858Y-73859048D01*
X89167858Y-73641905D01*
X89131668Y-73569524D01*
X89095477Y-73533333D01*
X89023096Y-73497143D01*
X88878334Y-73497143D01*
X88805953Y-73533333D01*
X88444049Y-74003810D02*
X88444049Y-73497143D01*
X88444049Y-73243810D02*
X88480239Y-73280000D01*
X88444049Y-73316190D01*
X88407858Y-73280000D01*
X88444049Y-73243810D01*
X88444049Y-73316190D01*
X88190715Y-73497143D02*
X87901191Y-73497143D01*
X88082144Y-73243810D02*
X88082144Y-73895238D01*
X88045953Y-73967619D01*
X87973572Y-74003810D01*
X87901191Y-74003810D01*
X87647858Y-74003810D02*
X87647858Y-73243810D01*
X87322143Y-74003810D02*
X87322143Y-73605714D01*
X87358334Y-73533333D01*
X87430715Y-73497143D01*
X87539286Y-73497143D01*
X87611667Y-73533333D01*
X87647858Y-73569524D01*
X86634524Y-73497143D02*
X86634524Y-74003810D01*
X86960239Y-73497143D02*
X86960239Y-73895238D01*
X86924048Y-73967619D01*
X86851667Y-74003810D01*
X86743096Y-74003810D01*
X86670715Y-73967619D01*
X86634524Y-73931429D01*
X86272620Y-74003810D02*
X86272620Y-73243810D01*
X86272620Y-73533333D02*
X86200239Y-73497143D01*
X86055477Y-73497143D01*
X85983096Y-73533333D01*
X85946905Y-73569524D01*
X85910715Y-73641905D01*
X85910715Y-73859048D01*
X85946905Y-73931429D01*
X85983096Y-73967619D01*
X86055477Y-74003810D01*
X86200239Y-74003810D01*
X86272620Y-73967619D01*
X85585001Y-73931429D02*
X85548810Y-73967619D01*
X85585001Y-74003810D01*
X85621191Y-73967619D01*
X85585001Y-73931429D01*
X85585001Y-74003810D01*
X84897381Y-73967619D02*
X84969762Y-74003810D01*
X85114524Y-74003810D01*
X85186905Y-73967619D01*
X85223096Y-73931429D01*
X85259286Y-73859048D01*
X85259286Y-73641905D01*
X85223096Y-73569524D01*
X85186905Y-73533333D01*
X85114524Y-73497143D01*
X84969762Y-73497143D01*
X84897381Y-73533333D01*
X84463095Y-74003810D02*
X84535476Y-73967619D01*
X84571667Y-73931429D01*
X84607857Y-73859048D01*
X84607857Y-73641905D01*
X84571667Y-73569524D01*
X84535476Y-73533333D01*
X84463095Y-73497143D01*
X84354524Y-73497143D01*
X84282143Y-73533333D01*
X84245952Y-73569524D01*
X84209762Y-73641905D01*
X84209762Y-73859048D01*
X84245952Y-73931429D01*
X84282143Y-73967619D01*
X84354524Y-74003810D01*
X84463095Y-74003810D01*
X83884048Y-74003810D02*
X83884048Y-73497143D01*
X83884048Y-73569524D02*
X83847857Y-73533333D01*
X83775476Y-73497143D01*
X83666905Y-73497143D01*
X83594524Y-73533333D01*
X83558333Y-73605714D01*
X83558333Y-74003810D01*
X83558333Y-73605714D02*
X83522143Y-73533333D01*
X83449762Y-73497143D01*
X83341190Y-73497143D01*
X83268810Y-73533333D01*
X83232619Y-73605714D01*
X83232619Y-74003810D01*
X82327857Y-73207619D02*
X82979286Y-74184762D01*
X81965953Y-74003810D02*
X82038334Y-73967619D01*
X82074525Y-73931429D01*
X82110715Y-73859048D01*
X82110715Y-73641905D01*
X82074525Y-73569524D01*
X82038334Y-73533333D01*
X81965953Y-73497143D01*
X81857382Y-73497143D01*
X81785001Y-73533333D01*
X81748810Y-73569524D01*
X81712620Y-73641905D01*
X81712620Y-73859048D01*
X81748810Y-73931429D01*
X81785001Y-73967619D01*
X81857382Y-74003810D01*
X81965953Y-74003810D01*
X81386906Y-73497143D02*
X81386906Y-74003810D01*
X81386906Y-73569524D02*
X81350715Y-73533333D01*
X81278334Y-73497143D01*
X81169763Y-73497143D01*
X81097382Y-73533333D01*
X81061191Y-73605714D01*
X81061191Y-74003810D01*
X80373572Y-74003810D02*
X80373572Y-73243810D01*
X80373572Y-73967619D02*
X80445953Y-74003810D01*
X80590715Y-74003810D01*
X80663096Y-73967619D01*
X80699287Y-73931429D01*
X80735477Y-73859048D01*
X80735477Y-73641905D01*
X80699287Y-73569524D01*
X80663096Y-73533333D01*
X80590715Y-73497143D01*
X80445953Y-73497143D01*
X80373572Y-73533333D01*
X80011668Y-74003810D02*
X80011668Y-73497143D01*
X80011668Y-73641905D02*
X79975477Y-73569524D01*
X79939287Y-73533333D01*
X79866906Y-73497143D01*
X79794525Y-73497143D01*
X79251668Y-73967619D02*
X79324049Y-74003810D01*
X79468811Y-74003810D01*
X79541192Y-73967619D01*
X79577382Y-73895238D01*
X79577382Y-73605714D01*
X79541192Y-73533333D01*
X79468811Y-73497143D01*
X79324049Y-73497143D01*
X79251668Y-73533333D01*
X79215477Y-73605714D01*
X79215477Y-73678095D01*
X79577382Y-73750476D01*
X78889763Y-73497143D02*
X78889763Y-74148571D01*
X78925953Y-74220952D01*
X78998334Y-74257143D01*
X79034525Y-74257143D01*
X78889763Y-73243810D02*
X78925953Y-73280000D01*
X78889763Y-73316190D01*
X78853572Y-73280000D01*
X78889763Y-73243810D01*
X78889763Y-73316190D01*
X78527858Y-74003810D02*
X78527858Y-73243810D01*
X78202143Y-74003810D02*
X78202143Y-73605714D01*
X78238334Y-73533333D01*
X78310715Y-73497143D01*
X78419286Y-73497143D01*
X78491667Y-73533333D01*
X78527858Y-73569524D01*
X77297381Y-73207619D02*
X77948810Y-74184762D01*
X76718334Y-73967619D02*
X76790715Y-74003810D01*
X76935477Y-74003810D01*
X77007858Y-73967619D01*
X77044049Y-73931429D01*
X77080239Y-73859048D01*
X77080239Y-73641905D01*
X77044049Y-73569524D01*
X77007858Y-73533333D01*
X76935477Y-73497143D01*
X76790715Y-73497143D01*
X76718334Y-73533333D01*
X76066905Y-74003810D02*
X76066905Y-73605714D01*
X76103096Y-73533333D01*
X76175477Y-73497143D01*
X76320239Y-73497143D01*
X76392620Y-73533333D01*
X76066905Y-73967619D02*
X76139286Y-74003810D01*
X76320239Y-74003810D01*
X76392620Y-73967619D01*
X76428810Y-73895238D01*
X76428810Y-73822857D01*
X76392620Y-73750476D01*
X76320239Y-73714286D01*
X76139286Y-73714286D01*
X76066905Y-73678095D01*
X75705001Y-73497143D02*
X75705001Y-74003810D01*
X75705001Y-73569524D02*
X75668810Y-73533333D01*
X75596429Y-73497143D01*
X75487858Y-73497143D01*
X75415477Y-73533333D01*
X75379286Y-73605714D01*
X75379286Y-74003810D01*
X75198334Y-74076190D02*
X74619286Y-74076190D01*
X74438334Y-74003810D02*
X74438334Y-73243810D01*
X74438334Y-73533333D02*
X74365953Y-73497143D01*
X74221191Y-73497143D01*
X74148810Y-73533333D01*
X74112619Y-73569524D01*
X74076429Y-73641905D01*
X74076429Y-73859048D01*
X74112619Y-73931429D01*
X74148810Y-73967619D01*
X74221191Y-74003810D01*
X74365953Y-74003810D01*
X74438334Y-73967619D01*
X73642143Y-74003810D02*
X73714524Y-73967619D01*
X73750715Y-73931429D01*
X73786905Y-73859048D01*
X73786905Y-73641905D01*
X73750715Y-73569524D01*
X73714524Y-73533333D01*
X73642143Y-73497143D01*
X73533572Y-73497143D01*
X73461191Y-73533333D01*
X73425000Y-73569524D01*
X73388810Y-73641905D01*
X73388810Y-73859048D01*
X73425000Y-73931429D01*
X73461191Y-73967619D01*
X73533572Y-74003810D01*
X73642143Y-74003810D01*
X72954524Y-74003810D02*
X73026905Y-73967619D01*
X73063096Y-73931429D01*
X73099286Y-73859048D01*
X73099286Y-73641905D01*
X73063096Y-73569524D01*
X73026905Y-73533333D01*
X72954524Y-73497143D01*
X72845953Y-73497143D01*
X72773572Y-73533333D01*
X72737381Y-73569524D01*
X72701191Y-73641905D01*
X72701191Y-73859048D01*
X72737381Y-73931429D01*
X72773572Y-73967619D01*
X72845953Y-74003810D01*
X72954524Y-74003810D01*
X72411667Y-73967619D02*
X72339286Y-74003810D01*
X72194524Y-74003810D01*
X72122143Y-73967619D01*
X72085953Y-73895238D01*
X72085953Y-73859048D01*
X72122143Y-73786667D01*
X72194524Y-73750476D01*
X72303096Y-73750476D01*
X72375477Y-73714286D01*
X72411667Y-73641905D01*
X72411667Y-73605714D01*
X72375477Y-73533333D01*
X72303096Y-73497143D01*
X72194524Y-73497143D01*
X72122143Y-73533333D01*
X71868810Y-73497143D02*
X71579286Y-73497143D01*
X71760239Y-73243810D02*
X71760239Y-73895238D01*
X71724048Y-73967619D01*
X71651667Y-74003810D01*
X71579286Y-74003810D01*
X71036429Y-73967619D02*
X71108810Y-74003810D01*
X71253572Y-74003810D01*
X71325953Y-73967619D01*
X71362143Y-73895238D01*
X71362143Y-73605714D01*
X71325953Y-73533333D01*
X71253572Y-73497143D01*
X71108810Y-73497143D01*
X71036429Y-73533333D01*
X71000238Y-73605714D01*
X71000238Y-73678095D01*
X71362143Y-73750476D01*
X70674524Y-74003810D02*
X70674524Y-73497143D01*
X70674524Y-73641905D02*
X70638333Y-73569524D01*
X70602143Y-73533333D01*
X70529762Y-73497143D01*
X70457381Y-73497143D01*
X70385000Y-74076190D02*
X69805952Y-74076190D01*
X69625000Y-73497143D02*
X69625000Y-74257143D01*
X69625000Y-73533333D02*
X69552619Y-73497143D01*
X69407857Y-73497143D01*
X69335476Y-73533333D01*
X69299285Y-73569524D01*
X69263095Y-73641905D01*
X69263095Y-73859048D01*
X69299285Y-73931429D01*
X69335476Y-73967619D01*
X69407857Y-74003810D01*
X69552619Y-74003810D01*
X69625000Y-73967619D01*
X68611666Y-74003810D02*
X68611666Y-73605714D01*
X68647857Y-73533333D01*
X68720238Y-73497143D01*
X68865000Y-73497143D01*
X68937381Y-73533333D01*
X68611666Y-73967619D02*
X68684047Y-74003810D01*
X68865000Y-74003810D01*
X68937381Y-73967619D01*
X68973571Y-73895238D01*
X68973571Y-73822857D01*
X68937381Y-73750476D01*
X68865000Y-73714286D01*
X68684047Y-73714286D01*
X68611666Y-73678095D01*
X67924047Y-73967619D02*
X67996428Y-74003810D01*
X68141190Y-74003810D01*
X68213571Y-73967619D01*
X68249762Y-73931429D01*
X68285952Y-73859048D01*
X68285952Y-73641905D01*
X68249762Y-73569524D01*
X68213571Y-73533333D01*
X68141190Y-73497143D01*
X67996428Y-73497143D01*
X67924047Y-73533333D01*
X67598333Y-74003810D02*
X67598333Y-73243810D01*
X67525952Y-73714286D02*
X67308809Y-74003810D01*
X67308809Y-73497143D02*
X67598333Y-73786667D01*
D12*
X83795714Y-54015714D02*
X83867143Y-54087143D01*
X84081429Y-54158571D01*
X84224286Y-54158571D01*
X84438571Y-54087143D01*
X84581429Y-53944286D01*
X84652857Y-53801429D01*
X84724286Y-53515714D01*
X84724286Y-53301429D01*
X84652857Y-53015714D01*
X84581429Y-52872857D01*
X84438571Y-52730000D01*
X84224286Y-52658571D01*
X84081429Y-52658571D01*
X83867143Y-52730000D01*
X83795714Y-52801429D01*
X83224286Y-53730000D02*
X82510000Y-53730000D01*
X83367143Y-54158571D02*
X82867143Y-52658571D01*
X82367143Y-54158571D01*
X81867143Y-54158571D02*
X81867143Y-52658571D01*
X81010000Y-54158571D01*
X81010000Y-52658571D01*
X78652857Y-53372857D02*
X78438571Y-53444286D01*
X78367143Y-53515714D01*
X78295714Y-53658571D01*
X78295714Y-53872857D01*
X78367143Y-54015714D01*
X78438571Y-54087143D01*
X78581429Y-54158571D01*
X79152857Y-54158571D01*
X79152857Y-52658571D01*
X78652857Y-52658571D01*
X78510000Y-52730000D01*
X78438571Y-52801429D01*
X78367143Y-52944286D01*
X78367143Y-53087143D01*
X78438571Y-53230000D01*
X78510000Y-53301429D01*
X78652857Y-53372857D01*
X79152857Y-53372857D01*
X77652857Y-52658571D02*
X77652857Y-53872857D01*
X77581429Y-54015714D01*
X77510000Y-54087143D01*
X77367143Y-54158571D01*
X77081429Y-54158571D01*
X76938571Y-54087143D01*
X76867143Y-54015714D01*
X76795714Y-53872857D01*
X76795714Y-52658571D01*
X76152857Y-54087143D02*
X75938571Y-54158571D01*
X75581428Y-54158571D01*
X75438571Y-54087143D01*
X75367142Y-54015714D01*
X75295714Y-53872857D01*
X75295714Y-53730000D01*
X75367142Y-53587143D01*
X75438571Y-53515714D01*
X75581428Y-53444286D01*
X75867142Y-53372857D01*
X76010000Y-53301429D01*
X76081428Y-53230000D01*
X76152857Y-53087143D01*
X76152857Y-52944286D01*
X76081428Y-52801429D01*
X76010000Y-52730000D01*
X75867142Y-52658571D01*
X75510000Y-52658571D01*
X75295714Y-52730000D01*
X87010000Y-56558571D02*
X87010000Y-55058571D01*
X87010000Y-55630000D02*
X86867143Y-55558571D01*
X86581429Y-55558571D01*
X86438572Y-55630000D01*
X86367143Y-55701429D01*
X86295714Y-55844286D01*
X86295714Y-56272857D01*
X86367143Y-56415714D01*
X86438572Y-56487143D01*
X86581429Y-56558571D01*
X86867143Y-56558571D01*
X87010000Y-56487143D01*
X85438571Y-56558571D02*
X85581429Y-56487143D01*
X85652857Y-56415714D01*
X85724286Y-56272857D01*
X85724286Y-55844286D01*
X85652857Y-55701429D01*
X85581429Y-55630000D01*
X85438571Y-55558571D01*
X85224286Y-55558571D01*
X85081429Y-55630000D01*
X85010000Y-55701429D01*
X84938571Y-55844286D01*
X84938571Y-56272857D01*
X85010000Y-56415714D01*
X85081429Y-56487143D01*
X85224286Y-56558571D01*
X85438571Y-56558571D01*
X84081428Y-56558571D02*
X84224286Y-56487143D01*
X84295714Y-56415714D01*
X84367143Y-56272857D01*
X84367143Y-55844286D01*
X84295714Y-55701429D01*
X84224286Y-55630000D01*
X84081428Y-55558571D01*
X83867143Y-55558571D01*
X83724286Y-55630000D01*
X83652857Y-55701429D01*
X83581428Y-55844286D01*
X83581428Y-56272857D01*
X83652857Y-56415714D01*
X83724286Y-56487143D01*
X83867143Y-56558571D01*
X84081428Y-56558571D01*
X83010000Y-56487143D02*
X82867143Y-56558571D01*
X82581428Y-56558571D01*
X82438571Y-56487143D01*
X82367143Y-56344286D01*
X82367143Y-56272857D01*
X82438571Y-56130000D01*
X82581428Y-56058571D01*
X82795714Y-56058571D01*
X82938571Y-55987143D01*
X83010000Y-55844286D01*
X83010000Y-55772857D01*
X82938571Y-55630000D01*
X82795714Y-55558571D01*
X82581428Y-55558571D01*
X82438571Y-55630000D01*
X81938571Y-55558571D02*
X81367142Y-55558571D01*
X81724285Y-55058571D02*
X81724285Y-56344286D01*
X81652857Y-56487143D01*
X81509999Y-56558571D01*
X81367142Y-56558571D01*
X80295714Y-56487143D02*
X80438571Y-56558571D01*
X80724285Y-56558571D01*
X80867142Y-56487143D01*
X80938571Y-56344286D01*
X80938571Y-55772857D01*
X80867142Y-55630000D01*
X80724285Y-55558571D01*
X80438571Y-55558571D01*
X80295714Y-55630000D01*
X80224285Y-55772857D01*
X80224285Y-55915714D01*
X80938571Y-56058571D01*
X79581428Y-56558571D02*
X79581428Y-55558571D01*
X79581428Y-55844286D02*
X79510000Y-55701429D01*
X79438571Y-55630000D01*
X79295714Y-55558571D01*
X79152857Y-55558571D01*
X77510000Y-55558571D02*
X77510000Y-57058571D01*
X77510000Y-55630000D02*
X77367143Y-55558571D01*
X77081429Y-55558571D01*
X76938572Y-55630000D01*
X76867143Y-55701429D01*
X76795714Y-55844286D01*
X76795714Y-56272857D01*
X76867143Y-56415714D01*
X76938572Y-56487143D01*
X77081429Y-56558571D01*
X77367143Y-56558571D01*
X77510000Y-56487143D01*
X75510000Y-56558571D02*
X75510000Y-55772857D01*
X75581429Y-55630000D01*
X75724286Y-55558571D01*
X76010000Y-55558571D01*
X76152857Y-55630000D01*
X75510000Y-56487143D02*
X75652857Y-56558571D01*
X76010000Y-56558571D01*
X76152857Y-56487143D01*
X76224286Y-56344286D01*
X76224286Y-56201429D01*
X76152857Y-56058571D01*
X76010000Y-55987143D01*
X75652857Y-55987143D01*
X75510000Y-55915714D01*
X74152857Y-56487143D02*
X74295714Y-56558571D01*
X74581428Y-56558571D01*
X74724286Y-56487143D01*
X74795714Y-56415714D01*
X74867143Y-56272857D01*
X74867143Y-55844286D01*
X74795714Y-55701429D01*
X74724286Y-55630000D01*
X74581428Y-55558571D01*
X74295714Y-55558571D01*
X74152857Y-55630000D01*
X73510000Y-56558571D02*
X73510000Y-55058571D01*
X73367143Y-55987143D02*
X72938572Y-56558571D01*
X72938572Y-55558571D02*
X73510000Y-56130000D01*
X83438570Y-57958571D02*
X83081427Y-58958571D01*
X82724285Y-57958571D01*
X80724285Y-57458571D02*
X80581428Y-57458571D01*
X80438571Y-57530000D01*
X80367142Y-57601429D01*
X80295713Y-57744286D01*
X80224285Y-58030000D01*
X80224285Y-58387143D01*
X80295713Y-58672857D01*
X80367142Y-58815714D01*
X80438571Y-58887143D01*
X80581428Y-58958571D01*
X80724285Y-58958571D01*
X80867142Y-58887143D01*
X80938571Y-58815714D01*
X81009999Y-58672857D01*
X81081428Y-58387143D01*
X81081428Y-58030000D01*
X81009999Y-57744286D01*
X80938571Y-57601429D01*
X80867142Y-57530000D01*
X80724285Y-57458571D01*
X79581428Y-58815714D02*
X79510000Y-58887143D01*
X79581428Y-58958571D01*
X79652857Y-58887143D01*
X79581428Y-58815714D01*
X79581428Y-58958571D01*
X78081428Y-58958571D02*
X78938571Y-58958571D01*
X78509999Y-58958571D02*
X78509999Y-57458571D01*
X78652856Y-57672857D01*
X78795714Y-57815714D01*
X78938571Y-57887143D01*
X77152857Y-57458571D02*
X77010000Y-57458571D01*
X76867143Y-57530000D01*
X76795714Y-57601429D01*
X76724285Y-57744286D01*
X76652857Y-58030000D01*
X76652857Y-58387143D01*
X76724285Y-58672857D01*
X76795714Y-58815714D01*
X76867143Y-58887143D01*
X77010000Y-58958571D01*
X77152857Y-58958571D01*
X77295714Y-58887143D01*
X77367143Y-58815714D01*
X77438571Y-58672857D01*
X77510000Y-58387143D01*
X77510000Y-58030000D01*
X77438571Y-57744286D01*
X77367143Y-57601429D01*
X77295714Y-57530000D01*
X77152857Y-57458571D01*
D13*
X80010000Y-66004440D02*
X80609440Y-67604640D01*
X79910940Y-66106040D02*
X79509620Y-67604640D01*
X80408780Y-65704720D02*
X79611220Y-65704720D01*
X79410560Y-65405000D02*
X80408780Y-65405000D01*
X80408780Y-65105280D02*
X79611220Y-65105280D01*
X84010500Y-67604640D02*
X82008980Y-67604640D01*
X82311240Y-67304920D02*
X83908900Y-67304920D01*
X84010500Y-67005200D02*
X82509360Y-67005200D01*
X82410300Y-66705480D02*
X84010500Y-66705480D01*
X83908900Y-66405760D02*
X82509360Y-66405760D01*
X82809080Y-66106040D02*
X83908900Y-66106040D01*
X84010500Y-65803780D02*
X83009740Y-65803780D01*
X83009740Y-65504060D02*
X84010500Y-65504060D01*
X83908900Y-65204340D02*
X83009740Y-65204340D01*
X82910680Y-64904620D02*
X83908900Y-64904620D01*
X84010500Y-64604900D02*
X82509360Y-64604900D01*
X82410300Y-64305180D02*
X83908900Y-64305180D01*
X84010500Y-64206120D02*
X82610960Y-64206120D01*
X82509360Y-63903860D02*
X83908900Y-63903860D01*
X83908900Y-63604140D02*
X82509360Y-63604140D01*
X82008980Y-63304420D02*
X83809840Y-63304420D01*
X83908900Y-63004700D02*
X80909160Y-63004700D01*
X80711040Y-62704980D02*
X83908900Y-62704980D01*
X79209900Y-62704980D02*
X76111100Y-62704980D01*
X76009500Y-62905640D02*
X79110840Y-62905640D01*
X78011020Y-63205360D02*
X76111100Y-63205360D01*
X76009500Y-63406020D02*
X77708760Y-63406020D01*
X77510640Y-63705740D02*
X76111100Y-63705740D01*
X76111100Y-64005460D02*
X77409040Y-64005460D01*
X77708760Y-64305180D02*
X76009500Y-64305180D01*
X76009500Y-64604900D02*
X77609700Y-64604900D01*
X77109320Y-64904620D02*
X76009500Y-64904620D01*
X76009500Y-65204340D02*
X77010260Y-65204340D01*
X77109320Y-65504060D02*
X76009500Y-65504060D01*
X76009500Y-65803780D02*
X77109320Y-65803780D01*
X77210920Y-66106040D02*
X76111100Y-66106040D01*
X76009500Y-66405760D02*
X77708760Y-66405760D01*
X77609700Y-66705480D02*
X76111100Y-66705480D01*
X77609700Y-67005200D02*
X76210160Y-67005200D01*
X76111100Y-67304920D02*
X77609700Y-67304920D01*
X77909420Y-67604640D02*
X76210160Y-67604640D01*
X80010000Y-67005200D02*
X79809340Y-67706240D01*
X80010000Y-66906140D02*
X80210660Y-67706240D01*
X76309220Y-67904360D02*
X76210160Y-70205600D01*
X83809840Y-67904360D02*
X83809840Y-70205600D01*
X83510120Y-67904360D02*
X83510120Y-70406260D01*
X76509880Y-67904360D02*
X76509880Y-70406260D01*
X84010500Y-67904360D02*
X76009500Y-67904360D01*
X79989680Y-66085720D02*
X80020160Y-66375280D01*
X80020160Y-66375280D02*
X79451200Y-67744340D01*
X79451200Y-67744340D02*
X79009240Y-67594480D01*
X79009240Y-67594480D02*
X78971140Y-67546220D01*
X78971140Y-67546220D02*
X78579980Y-67815460D01*
X78590140Y-67774820D02*
X78389480Y-67744340D01*
X78379320Y-67784980D02*
X77701140Y-67144900D01*
X77701140Y-67144900D02*
X77609700Y-66913760D01*
X77609700Y-66913760D02*
X77878940Y-66436240D01*
X77878940Y-66436240D02*
X77851000Y-66283840D01*
X77851000Y-66283840D02*
X77170280Y-66095880D01*
X77170280Y-66095880D02*
X77109320Y-64914780D01*
X77109320Y-64914780D02*
X77779880Y-64665860D01*
X77779880Y-64665860D02*
X77851000Y-64465200D01*
X77851000Y-64465200D02*
X77579220Y-63934340D01*
X77579220Y-63934340D02*
X77701140Y-63624460D01*
X77701140Y-63624460D02*
X78341220Y-63014860D01*
X78341220Y-63014860D02*
X78549500Y-63004700D01*
X78549500Y-63004700D02*
X78971140Y-63263780D01*
X78971140Y-63263780D02*
X79148940Y-63185040D01*
X79148940Y-63185040D02*
X79369920Y-62626240D01*
X79369920Y-62626240D02*
X79390240Y-62555120D01*
X79390240Y-62555120D02*
X80561180Y-62534800D01*
X80551020Y-62494160D02*
X80799940Y-63164720D01*
X80799940Y-63164720D02*
X80919320Y-63235840D01*
X80919320Y-63235840D02*
X81620360Y-62936120D01*
X81620360Y-62936120D02*
X82471260Y-63835280D01*
X82471260Y-63835280D02*
X82199480Y-64465200D01*
X82199480Y-64465200D02*
X82240120Y-64594740D01*
X82240120Y-64594740D02*
X82760820Y-64676020D01*
X82760820Y-64676020D02*
X82910680Y-64734440D01*
X82910680Y-64734440D02*
X82880200Y-65994280D01*
X82880200Y-65994280D02*
X82240120Y-66225420D01*
X82240120Y-66225420D02*
X82209640Y-66324480D01*
X82209640Y-66324480D02*
X82509360Y-66934080D01*
X82509360Y-66934080D02*
X81688940Y-67774820D01*
X81688940Y-67774820D02*
X81579720Y-67866260D01*
X81579720Y-67866260D02*
X80990440Y-67574160D01*
X80990440Y-67574160D02*
X80728820Y-67713860D01*
X80728820Y-67713860D02*
X80500220Y-67713860D01*
X80500220Y-67713860D02*
X79959200Y-66205100D01*
X79959200Y-66205100D02*
X80200500Y-65895220D01*
X80200500Y-65895220D02*
X80279240Y-65905380D01*
X80279240Y-65905380D02*
X80490060Y-65765680D01*
X80490060Y-65765680D02*
X80629760Y-65565020D01*
X80629760Y-65565020D02*
X80589120Y-65125600D01*
X80589120Y-65125600D02*
X80309720Y-64836040D01*
X80309720Y-64836040D02*
X79949040Y-64764920D01*
X79949040Y-64764920D02*
X79611220Y-64884300D01*
X79611220Y-64884300D02*
X79380080Y-65184020D01*
X79380080Y-65184020D02*
X79390240Y-65585340D01*
X79390240Y-65585340D02*
X79499460Y-65775840D01*
X79499460Y-65775840D02*
X80010000Y-66085720D01*
X84010500Y-62405260D02*
X76009500Y-62405260D01*
X76009500Y-62405260D02*
X76009500Y-70406260D01*
X76009500Y-70406260D02*
X84010500Y-70406260D01*
X84010500Y-70406260D02*
X84010500Y-62405260D01*
X78292960Y-68486020D02*
X77932280Y-69956680D01*
X77932280Y-69956680D02*
X77652880Y-68894960D01*
X77652880Y-68894960D02*
X77343000Y-69966840D01*
X77343000Y-69966840D02*
X77002640Y-68516500D01*
X79712820Y-69176900D02*
X78922880Y-69166740D01*
X78922880Y-69166740D02*
X78912720Y-69176900D01*
X78912720Y-69176900D02*
X78912720Y-69166740D01*
X78872080Y-68455540D02*
X78872080Y-69997320D01*
X79761080Y-68445380D02*
X79761080Y-70015100D01*
X79761080Y-70015100D02*
X79750920Y-70004940D01*
X80312260Y-68546980D02*
X80662780Y-68465700D01*
X80662780Y-68465700D02*
X80982820Y-68455540D01*
X80982820Y-68455540D02*
X81221580Y-68656200D01*
X81221580Y-68656200D02*
X81252060Y-68925440D01*
X81252060Y-68925440D02*
X81010760Y-69166740D01*
X81010760Y-69166740D02*
X80622140Y-69296280D01*
X80622140Y-69296280D02*
X80441800Y-69456300D01*
X80441800Y-69456300D02*
X80401160Y-69756020D01*
X80401160Y-69756020D02*
X80632300Y-69977000D01*
X80632300Y-69977000D02*
X80952340Y-70004940D01*
X80952340Y-70004940D02*
X81302860Y-69895720D01*
X82341720Y-68445380D02*
X82590640Y-68465700D01*
X82590640Y-68465700D02*
X82831940Y-68707000D01*
X82831940Y-68707000D02*
X82920840Y-69197220D01*
X82920840Y-69197220D02*
X82892900Y-69545200D01*
X82892900Y-69545200D02*
X82692240Y-69865240D01*
X82692240Y-69865240D02*
X82440780Y-69987160D01*
X82440780Y-69987160D02*
X82130900Y-69916040D01*
X82130900Y-69916040D02*
X81912460Y-69735700D01*
X81912460Y-69735700D02*
X81841340Y-69275960D01*
X81841340Y-69275960D02*
X81892140Y-68867020D01*
X81892140Y-68867020D02*
X82001360Y-68585080D01*
X82001360Y-68585080D02*
X82362040Y-68455540D01*
D14*
X67310000Y-82550000D03*
D15*
X67310000Y-85090000D03*
D16*
X57150000Y-43180000D03*
D17*
X59690000Y-43180000D03*
X57150000Y-45720000D03*
X59690000Y-45720000D03*
X57150000Y-48260000D03*
X59690000Y-48260000D03*
X57150000Y-50800000D03*
X59690000Y-50800000D03*
X57150000Y-53340000D03*
X59690000Y-53340000D03*
X57150000Y-55880000D03*
X59690000Y-55880000D03*
X57150000Y-58420000D03*
X59690000Y-58420000D03*
X57150000Y-60960000D03*
X59690000Y-60960000D03*
X57150000Y-63500000D03*
X59690000Y-63500000D03*
X57150000Y-66040000D03*
X59690000Y-66040000D03*
D16*
X100330000Y-43180000D03*
D17*
X102870000Y-43180000D03*
X100330000Y-45720000D03*
X102870000Y-45720000D03*
X100330000Y-48260000D03*
X102870000Y-48260000D03*
X100330000Y-50800000D03*
X102870000Y-50800000D03*
X100330000Y-53340000D03*
X102870000Y-53340000D03*
X100330000Y-55880000D03*
X102870000Y-55880000D03*
X100330000Y-58420000D03*
X102870000Y-58420000D03*
X100330000Y-60960000D03*
X102870000Y-60960000D03*
X100330000Y-63500000D03*
X102870000Y-63500000D03*
X100330000Y-66040000D03*
X102870000Y-66040000D03*
D18*
X72390000Y-85090000D03*
X77470000Y-85090000D03*
D19*
X104140000Y-88900000D03*
X68580000Y-76835000D03*
X69850000Y-76835000D03*
X67310000Y-76835000D03*
X55880000Y-88900000D03*
X81280000Y-76835000D03*
X82550000Y-76835000D03*
X80010000Y-76835000D03*
X71120000Y-46990000D03*
X71120000Y-49530000D03*
X77470000Y-46355000D03*
X77470000Y-47625000D03*
D20*
X104140000Y-88900000D02*
X104140000Y-88265000D01*
X68580000Y-76835000D02*
X69850000Y-76835000D01*
X67310000Y-76835000D02*
X65405000Y-78105000D01*
X65405000Y-78105000D02*
X65405000Y-88900000D01*
X65405000Y-88900000D02*
X55880000Y-88900000D01*
X81280000Y-76835000D02*
X82550000Y-76835000D01*
X80010000Y-76835000D02*
X79375000Y-76835000D01*
X59690000Y-45720000D02*
X69850000Y-45720000D01*
X69850000Y-45720000D02*
X71120000Y-46990000D01*
X71120000Y-49530000D02*
X70485000Y-49530000D01*
X77470000Y-46355000D02*
X77470000Y-47625000D01*
D21*
G36*
X104675000Y-89435000D02*
X104368600Y-89435000D01*
X104368600Y-66069359D01*
X104368600Y-66010641D01*
X104254526Y-65437152D01*
X103929670Y-64950971D01*
X103658827Y-64770000D01*
X103929670Y-64589029D01*
X104254526Y-64102848D01*
X104368600Y-63529359D01*
X104368600Y-63470641D01*
X104254526Y-62897152D01*
X103929670Y-62410971D01*
X103658827Y-62230000D01*
X103929670Y-62049029D01*
X104254526Y-61562848D01*
X104368600Y-60989359D01*
X104368600Y-60930641D01*
X104254526Y-60357152D01*
X103929670Y-59870971D01*
X103658827Y-59690000D01*
X103929670Y-59509029D01*
X104254526Y-59022848D01*
X104368600Y-58449359D01*
X104368600Y-58390641D01*
X104254526Y-57817152D01*
X103929670Y-57330971D01*
X103658827Y-57150000D01*
X103929670Y-56969029D01*
X104254526Y-56482848D01*
X104368600Y-55909359D01*
X104368600Y-55850641D01*
X104254526Y-55277152D01*
X103929670Y-54790971D01*
X103658827Y-54610000D01*
X103929670Y-54429029D01*
X104254526Y-53942848D01*
X104368600Y-53369359D01*
X104368600Y-53310641D01*
X104254526Y-52737152D01*
X103929670Y-52250971D01*
X103658827Y-52070000D01*
X103929670Y-51889029D01*
X104254526Y-51402848D01*
X104368600Y-50829359D01*
X104368600Y-50770641D01*
X104254526Y-50197152D01*
X103929670Y-49710971D01*
X103658827Y-49530000D01*
X103929670Y-49349029D01*
X104254526Y-48862848D01*
X104368600Y-48289359D01*
X104368600Y-48230641D01*
X104254526Y-47657152D01*
X103929670Y-47170971D01*
X103658827Y-46990000D01*
X103929670Y-46809029D01*
X104254526Y-46322848D01*
X104368600Y-45749359D01*
X104368600Y-45690641D01*
X104254526Y-45117152D01*
X103929670Y-44630971D01*
X103658839Y-44450007D01*
X104076821Y-44068490D01*
X104324968Y-43539027D01*
X104324968Y-42820973D01*
X104076821Y-42291510D01*
X103644947Y-41897312D01*
X103229026Y-41725042D01*
X102997000Y-41846183D01*
X102997000Y-43053000D01*
X104204469Y-43053000D01*
X104324968Y-42820973D01*
X104324968Y-43539027D01*
X104204469Y-43307000D01*
X102997000Y-43307000D01*
X102997000Y-43327000D01*
X102743000Y-43327000D01*
X102743000Y-43307000D01*
X102723000Y-43307000D01*
X102723000Y-43053000D01*
X102743000Y-43053000D01*
X102743000Y-41846183D01*
X102510974Y-41725042D01*
X102095053Y-41897312D01*
X101810178Y-42157334D01*
X101794063Y-42074277D01*
X101654273Y-41861473D01*
X101443240Y-41719023D01*
X101193600Y-41668960D01*
X99466400Y-41668960D01*
X99224277Y-41715937D01*
X99011473Y-41855727D01*
X98869023Y-42066760D01*
X98818960Y-42316400D01*
X98818960Y-44043600D01*
X98865937Y-44285723D01*
X99005727Y-44498527D01*
X99216760Y-44640977D01*
X99258104Y-44649268D01*
X98945474Y-45117152D01*
X98831400Y-45690641D01*
X98831400Y-45749359D01*
X98945474Y-46322848D01*
X99270330Y-46809029D01*
X99541172Y-46990000D01*
X99270330Y-47170971D01*
X98945474Y-47657152D01*
X98831400Y-48230641D01*
X98831400Y-48289359D01*
X98945474Y-48862848D01*
X99270330Y-49349029D01*
X99541172Y-49530000D01*
X99270330Y-49710971D01*
X98945474Y-50197152D01*
X98831400Y-50770641D01*
X98831400Y-50829359D01*
X98945474Y-51402848D01*
X99270330Y-51889029D01*
X99541172Y-52070000D01*
X99270330Y-52250971D01*
X98945474Y-52737152D01*
X98831400Y-53310641D01*
X98831400Y-53369359D01*
X98945474Y-53942848D01*
X99270330Y-54429029D01*
X99541172Y-54610000D01*
X99270330Y-54790971D01*
X98945474Y-55277152D01*
X98831400Y-55850641D01*
X98831400Y-55909359D01*
X98945474Y-56482848D01*
X99270330Y-56969029D01*
X99541172Y-57150000D01*
X99270330Y-57330971D01*
X98945474Y-57817152D01*
X98831400Y-58390641D01*
X98831400Y-58449359D01*
X98945474Y-59022848D01*
X99270330Y-59509029D01*
X99541172Y-59690000D01*
X99270330Y-59870971D01*
X98945474Y-60357152D01*
X98831400Y-60930641D01*
X98831400Y-60989359D01*
X98945474Y-61562848D01*
X99270330Y-62049029D01*
X99541172Y-62230000D01*
X99270330Y-62410971D01*
X98945474Y-62897152D01*
X98831400Y-63470641D01*
X98831400Y-63529359D01*
X98945474Y-64102848D01*
X99270330Y-64589029D01*
X99541172Y-64770000D01*
X99270330Y-64950971D01*
X98945474Y-65437152D01*
X98831400Y-66010641D01*
X98831400Y-66069359D01*
X98945474Y-66642848D01*
X99270330Y-67129029D01*
X99756511Y-67453885D01*
X100330000Y-67567959D01*
X100903489Y-67453885D01*
X101389670Y-67129029D01*
X101600000Y-66814248D01*
X101810330Y-67129029D01*
X102296511Y-67453885D01*
X102870000Y-67567959D01*
X103443489Y-67453885D01*
X103929670Y-67129029D01*
X104254526Y-66642848D01*
X104368600Y-66069359D01*
X104368600Y-89435000D01*
X101695707Y-89435000D01*
X101695707Y-83298116D01*
X101295359Y-82329201D01*
X100554698Y-81587246D01*
X99586483Y-81185208D01*
X98538116Y-81184293D01*
X97569201Y-81584641D01*
X96827246Y-82325302D01*
X96425208Y-83293517D01*
X96424293Y-84341884D01*
X96824641Y-85310799D01*
X97565302Y-86052754D01*
X98533517Y-86454792D01*
X99581884Y-86455707D01*
X100550799Y-86055359D01*
X101292754Y-85314698D01*
X101694792Y-84346483D01*
X101695707Y-83298116D01*
X101695707Y-89435000D01*
X94855953Y-89435000D01*
X94855953Y-74922000D01*
X94855953Y-72208000D01*
X88152143Y-72208000D01*
X88152143Y-60115000D01*
X88152143Y-51345000D01*
X71867857Y-51345000D01*
X71867857Y-60115000D01*
X88152143Y-60115000D01*
X88152143Y-72208000D01*
X84836000Y-72208000D01*
X84836000Y-70406260D01*
X84836000Y-67904360D01*
X84836000Y-67604640D01*
X84836000Y-67005200D01*
X84836000Y-66705480D01*
X84836000Y-65803780D01*
X84836000Y-65504060D01*
X84836000Y-64604900D01*
X84836000Y-64206120D01*
X84836000Y-62405260D01*
X84773163Y-62089355D01*
X84594217Y-61821543D01*
X84326405Y-61642597D01*
X84010500Y-61579760D01*
X76009500Y-61579760D01*
X75693595Y-61642597D01*
X75425783Y-61821543D01*
X75246837Y-62089355D01*
X75184000Y-62405260D01*
X75184000Y-62905640D01*
X75184000Y-63406020D01*
X75184000Y-64305180D01*
X75184000Y-64604900D01*
X75184000Y-64904620D01*
X75184000Y-65204340D01*
X75184000Y-65504060D01*
X75184000Y-65803780D01*
X75184000Y-66405760D01*
X75184000Y-67904360D01*
X75184000Y-70406260D01*
X75246837Y-70722165D01*
X75425783Y-70989977D01*
X75693595Y-71168923D01*
X76009500Y-71231760D01*
X76509880Y-71231760D01*
X83510120Y-71231760D01*
X84010500Y-71231760D01*
X84326405Y-71168923D01*
X84594217Y-70989977D01*
X84773163Y-70722165D01*
X84836000Y-70406260D01*
X84836000Y-72208000D01*
X66434047Y-72208000D01*
X66434047Y-74922000D01*
X94855953Y-74922000D01*
X94855953Y-89435000D01*
X79604870Y-89435000D01*
X79604870Y-86152191D01*
X79604870Y-84027809D01*
X79442363Y-83210830D01*
X78979581Y-82518228D01*
X78286979Y-82055446D01*
X77470000Y-81892939D01*
X76653021Y-82055446D01*
X75960419Y-82518228D01*
X75497637Y-83210830D01*
X75335130Y-84027809D01*
X75335130Y-86152191D01*
X75497637Y-86969170D01*
X75960419Y-87661772D01*
X76653021Y-88124554D01*
X77470000Y-88287061D01*
X78286979Y-88124554D01*
X78979581Y-87661772D01*
X79442363Y-86969170D01*
X79604870Y-86152191D01*
X79604870Y-89435000D01*
X74524870Y-89435000D01*
X74524870Y-86152191D01*
X74524870Y-84027809D01*
X74362363Y-83210830D01*
X73899581Y-82518228D01*
X73206979Y-82055446D01*
X72390000Y-81892939D01*
X71573021Y-82055446D01*
X70880419Y-82518228D01*
X70417637Y-83210830D01*
X70255130Y-84027809D01*
X70255130Y-86152191D01*
X70417637Y-86969170D01*
X70880419Y-87661772D01*
X71573021Y-88124554D01*
X72390000Y-88287061D01*
X73206979Y-88124554D01*
X73899581Y-87661772D01*
X74362363Y-86969170D01*
X74524870Y-86152191D01*
X74524870Y-89435000D01*
X68973440Y-89435000D01*
X68973440Y-83566000D01*
X68973440Y-81534000D01*
X68926463Y-81291877D01*
X68786673Y-81079073D01*
X68575640Y-80936623D01*
X68326000Y-80886560D01*
X66294000Y-80886560D01*
X66051877Y-80933537D01*
X65839073Y-81073327D01*
X65696623Y-81284360D01*
X65646560Y-81534000D01*
X65646560Y-83566000D01*
X65693537Y-83808123D01*
X65833327Y-84020927D01*
X65986256Y-84124156D01*
X65784675Y-84425845D01*
X65659000Y-85057655D01*
X65659000Y-85122345D01*
X65784675Y-85754155D01*
X66142567Y-86289778D01*
X66678190Y-86647670D01*
X67310000Y-86773345D01*
X67941810Y-86647670D01*
X68477433Y-86289778D01*
X68835325Y-85754155D01*
X68961000Y-85122345D01*
X68961000Y-85057655D01*
X68835325Y-84425845D01*
X68633372Y-84123601D01*
X68780927Y-84026673D01*
X68923377Y-83815640D01*
X68973440Y-83566000D01*
X68973440Y-89435000D01*
X63595707Y-89435000D01*
X63595707Y-83298116D01*
X63195359Y-82329201D01*
X62454698Y-81587246D01*
X61486483Y-81185208D01*
X61188600Y-81184948D01*
X61188600Y-66069359D01*
X61188600Y-66010641D01*
X61074526Y-65437152D01*
X60749670Y-64950971D01*
X60478827Y-64770000D01*
X60749670Y-64589029D01*
X61074526Y-64102848D01*
X61188600Y-63529359D01*
X61188600Y-63470641D01*
X61074526Y-62897152D01*
X60749670Y-62410971D01*
X60478827Y-62230000D01*
X60749670Y-62049029D01*
X61074526Y-61562848D01*
X61188600Y-60989359D01*
X61188600Y-60930641D01*
X61074526Y-60357152D01*
X60749670Y-59870971D01*
X60478827Y-59690000D01*
X60749670Y-59509029D01*
X61074526Y-59022848D01*
X61188600Y-58449359D01*
X61188600Y-58390641D01*
X61074526Y-57817152D01*
X60749670Y-57330971D01*
X60478827Y-57150000D01*
X60749670Y-56969029D01*
X61074526Y-56482848D01*
X61188600Y-55909359D01*
X61188600Y-55850641D01*
X61074526Y-55277152D01*
X60749670Y-54790971D01*
X60478827Y-54610000D01*
X60749670Y-54429029D01*
X61074526Y-53942848D01*
X61188600Y-53369359D01*
X61188600Y-53310641D01*
X61074526Y-52737152D01*
X60749670Y-52250971D01*
X60478827Y-52070000D01*
X60749670Y-51889029D01*
X61074526Y-51402848D01*
X61188600Y-50829359D01*
X61188600Y-50770641D01*
X61074526Y-50197152D01*
X60749670Y-49710971D01*
X60478827Y-49530000D01*
X60749670Y-49349029D01*
X61074526Y-48862848D01*
X61188600Y-48289359D01*
X61188600Y-48230641D01*
X61074526Y-47657152D01*
X60749670Y-47170971D01*
X60478839Y-46990007D01*
X60896821Y-46608490D01*
X61144968Y-46079027D01*
X61024469Y-45847000D01*
X59817000Y-45847000D01*
X59817000Y-45867000D01*
X59563000Y-45867000D01*
X59563000Y-45847000D01*
X59543000Y-45847000D01*
X59543000Y-45593000D01*
X59563000Y-45593000D01*
X59563000Y-45573000D01*
X59817000Y-45573000D01*
X59817000Y-45593000D01*
X61024469Y-45593000D01*
X61144968Y-45360973D01*
X60896821Y-44831510D01*
X60478839Y-44449992D01*
X60749670Y-44269029D01*
X61074526Y-43782848D01*
X61188600Y-43209359D01*
X61188600Y-43150641D01*
X61074526Y-42577152D01*
X60749670Y-42090971D01*
X60263489Y-41766115D01*
X59690000Y-41652041D01*
X59116511Y-41766115D01*
X58630330Y-42090971D01*
X58620233Y-42106081D01*
X58614063Y-42074277D01*
X58474273Y-41861473D01*
X58263240Y-41719023D01*
X58013600Y-41668960D01*
X56286400Y-41668960D01*
X56044277Y-41715937D01*
X55831473Y-41855727D01*
X55689023Y-42066760D01*
X55638960Y-42316400D01*
X55638960Y-44043600D01*
X55685937Y-44285723D01*
X55825727Y-44498527D01*
X56036760Y-44640977D01*
X56078104Y-44649268D01*
X55765474Y-45117152D01*
X55651400Y-45690641D01*
X55651400Y-45749359D01*
X55765474Y-46322848D01*
X56090330Y-46809029D01*
X56361172Y-46990000D01*
X56090330Y-47170971D01*
X55765474Y-47657152D01*
X55651400Y-48230641D01*
X55651400Y-48289359D01*
X55765474Y-48862848D01*
X56090330Y-49349029D01*
X56361172Y-49530000D01*
X56090330Y-49710971D01*
X55765474Y-50197152D01*
X55651400Y-50770641D01*
X55651400Y-50829359D01*
X55765474Y-51402848D01*
X56090330Y-51889029D01*
X56361172Y-52070000D01*
X56090330Y-52250971D01*
X55765474Y-52737152D01*
X55651400Y-53310641D01*
X55651400Y-53369359D01*
X55765474Y-53942848D01*
X56090330Y-54429029D01*
X56361172Y-54610000D01*
X56090330Y-54790971D01*
X55765474Y-55277152D01*
X55651400Y-55850641D01*
X55651400Y-55909359D01*
X55765474Y-56482848D01*
X56090330Y-56969029D01*
X56361172Y-57150000D01*
X56090330Y-57330971D01*
X55765474Y-57817152D01*
X55651400Y-58390641D01*
X55651400Y-58449359D01*
X55765474Y-59022848D01*
X56090330Y-59509029D01*
X56361172Y-59690000D01*
X56090330Y-59870971D01*
X55765474Y-60357152D01*
X55651400Y-60930641D01*
X55651400Y-60989359D01*
X55765474Y-61562848D01*
X56090330Y-62049029D01*
X56361172Y-62230000D01*
X56090330Y-62410971D01*
X55765474Y-62897152D01*
X55651400Y-63470641D01*
X55651400Y-63529359D01*
X55765474Y-64102848D01*
X56090330Y-64589029D01*
X56361172Y-64770000D01*
X56090330Y-64950971D01*
X55765474Y-65437152D01*
X55651400Y-66010641D01*
X55651400Y-66069359D01*
X55765474Y-66642848D01*
X56090330Y-67129029D01*
X56576511Y-67453885D01*
X57150000Y-67567959D01*
X57723489Y-67453885D01*
X58209670Y-67129029D01*
X58420000Y-66814248D01*
X58630330Y-67129029D01*
X59116511Y-67453885D01*
X59690000Y-67567959D01*
X60263489Y-67453885D01*
X60749670Y-67129029D01*
X61074526Y-66642848D01*
X61188600Y-66069359D01*
X61188600Y-81184948D01*
X60438116Y-81184293D01*
X59469201Y-81584641D01*
X58727246Y-82325302D01*
X58325208Y-83293517D01*
X58324293Y-84341884D01*
X58724641Y-85310799D01*
X59465302Y-86052754D01*
X60433517Y-86454792D01*
X61481884Y-86455707D01*
X62450799Y-86055359D01*
X63192754Y-85314698D01*
X63594792Y-84346483D01*
X63595707Y-83298116D01*
X63595707Y-89435000D01*
X55345000Y-89435000D01*
X55345000Y-41375000D01*
X104675000Y-41375000D01*
X104675000Y-89435000D01*
X104675000Y-89435000D01*
G37*
X104675000Y-89435000D02*
X104368600Y-89435000D01*
X104368600Y-66069359D01*
X104368600Y-66010641D01*
X104254526Y-65437152D01*
X103929670Y-64950971D01*
X103658827Y-64770000D01*
X103929670Y-64589029D01*
X104254526Y-64102848D01*
X104368600Y-63529359D01*
X104368600Y-63470641D01*
X104254526Y-62897152D01*
X103929670Y-62410971D01*
X103658827Y-62230000D01*
X103929670Y-62049029D01*
X104254526Y-61562848D01*
X104368600Y-60989359D01*
X104368600Y-60930641D01*
X104254526Y-60357152D01*
X103929670Y-59870971D01*
X103658827Y-59690000D01*
X103929670Y-59509029D01*
X104254526Y-59022848D01*
X104368600Y-58449359D01*
X104368600Y-58390641D01*
X104254526Y-57817152D01*
X103929670Y-57330971D01*
X103658827Y-57150000D01*
X103929670Y-56969029D01*
X104254526Y-56482848D01*
X104368600Y-55909359D01*
X104368600Y-55850641D01*
X104254526Y-55277152D01*
X103929670Y-54790971D01*
X103658827Y-54610000D01*
X103929670Y-54429029D01*
X104254526Y-53942848D01*
X104368600Y-53369359D01*
X104368600Y-53310641D01*
X104254526Y-52737152D01*
X103929670Y-52250971D01*
X103658827Y-52070000D01*
X103929670Y-51889029D01*
X104254526Y-51402848D01*
X104368600Y-50829359D01*
X104368600Y-50770641D01*
X104254526Y-50197152D01*
X103929670Y-49710971D01*
X103658827Y-49530000D01*
X103929670Y-49349029D01*
X104254526Y-48862848D01*
X104368600Y-48289359D01*
X104368600Y-48230641D01*
X104254526Y-47657152D01*
X103929670Y-47170971D01*
X103658827Y-46990000D01*
X103929670Y-46809029D01*
X104254526Y-46322848D01*
X104368600Y-45749359D01*
X104368600Y-45690641D01*
X104254526Y-45117152D01*
X103929670Y-44630971D01*
X103658839Y-44450007D01*
X104076821Y-44068490D01*
X104324968Y-43539027D01*
X104324968Y-42820973D01*
X104076821Y-42291510D01*
X103644947Y-41897312D01*
X103229026Y-41725042D01*
X102997000Y-41846183D01*
X102997000Y-43053000D01*
X104204469Y-43053000D01*
X104324968Y-42820973D01*
X104324968Y-43539027D01*
X104204469Y-43307000D01*
X102997000Y-43307000D01*
X102997000Y-43327000D01*
X102743000Y-43327000D01*
X102743000Y-43307000D01*
X102723000Y-43307000D01*
X102723000Y-43053000D01*
X102743000Y-43053000D01*
X102743000Y-41846183D01*
X102510974Y-41725042D01*
X102095053Y-41897312D01*
X101810178Y-42157334D01*
X101794063Y-42074277D01*
X101654273Y-41861473D01*
X101443240Y-41719023D01*
X101193600Y-41668960D01*
X99466400Y-41668960D01*
X99224277Y-41715937D01*
X99011473Y-41855727D01*
X98869023Y-42066760D01*
X98818960Y-42316400D01*
X98818960Y-44043600D01*
X98865937Y-44285723D01*
X99005727Y-44498527D01*
X99216760Y-44640977D01*
X99258104Y-44649268D01*
X98945474Y-45117152D01*
X98831400Y-45690641D01*
X98831400Y-45749359D01*
X98945474Y-46322848D01*
X99270330Y-46809029D01*
X99541172Y-46990000D01*
X99270330Y-47170971D01*
X98945474Y-47657152D01*
X98831400Y-48230641D01*
X98831400Y-48289359D01*
X98945474Y-48862848D01*
X99270330Y-49349029D01*
X99541172Y-49530000D01*
X99270330Y-49710971D01*
X98945474Y-50197152D01*
X98831400Y-50770641D01*
X98831400Y-50829359D01*
X98945474Y-51402848D01*
X99270330Y-51889029D01*
X99541172Y-52070000D01*
X99270330Y-52250971D01*
X98945474Y-52737152D01*
X98831400Y-53310641D01*
X98831400Y-53369359D01*
X98945474Y-53942848D01*
X99270330Y-54429029D01*
X99541172Y-54610000D01*
X99270330Y-54790971D01*
X98945474Y-55277152D01*
X98831400Y-55850641D01*
X98831400Y-55909359D01*
X98945474Y-56482848D01*
X99270330Y-56969029D01*
X99541172Y-57150000D01*
X99270330Y-57330971D01*
X98945474Y-57817152D01*
X98831400Y-58390641D01*
X98831400Y-58449359D01*
X98945474Y-59022848D01*
X99270330Y-59509029D01*
X99541172Y-59690000D01*
X99270330Y-59870971D01*
X98945474Y-60357152D01*
X98831400Y-60930641D01*
X98831400Y-60989359D01*
X98945474Y-61562848D01*
X99270330Y-62049029D01*
X99541172Y-62230000D01*
X99270330Y-62410971D01*
X98945474Y-62897152D01*
X98831400Y-63470641D01*
X98831400Y-63529359D01*
X98945474Y-64102848D01*
X99270330Y-64589029D01*
X99541172Y-64770000D01*
X99270330Y-64950971D01*
X98945474Y-65437152D01*
X98831400Y-66010641D01*
X98831400Y-66069359D01*
X98945474Y-66642848D01*
X99270330Y-67129029D01*
X99756511Y-67453885D01*
X100330000Y-67567959D01*
X100903489Y-67453885D01*
X101389670Y-67129029D01*
X101600000Y-66814248D01*
X101810330Y-67129029D01*
X102296511Y-67453885D01*
X102870000Y-67567959D01*
X103443489Y-67453885D01*
X103929670Y-67129029D01*
X104254526Y-66642848D01*
X104368600Y-66069359D01*
X104368600Y-89435000D01*
X101695707Y-89435000D01*
X101695707Y-83298116D01*
X101295359Y-82329201D01*
X100554698Y-81587246D01*
X99586483Y-81185208D01*
X98538116Y-81184293D01*
X97569201Y-81584641D01*
X96827246Y-82325302D01*
X96425208Y-83293517D01*
X96424293Y-84341884D01*
X96824641Y-85310799D01*
X97565302Y-86052754D01*
X98533517Y-86454792D01*
X99581884Y-86455707D01*
X100550799Y-86055359D01*
X101292754Y-85314698D01*
X101694792Y-84346483D01*
X101695707Y-83298116D01*
X101695707Y-89435000D01*
X94855953Y-89435000D01*
X94855953Y-74922000D01*
X94855953Y-72208000D01*
X88152143Y-72208000D01*
X88152143Y-60115000D01*
X88152143Y-51345000D01*
X71867857Y-51345000D01*
X71867857Y-60115000D01*
X88152143Y-60115000D01*
X88152143Y-72208000D01*
X84836000Y-72208000D01*
X84836000Y-70406260D01*
X84836000Y-67904360D01*
X84836000Y-67604640D01*
X84836000Y-67005200D01*
X84836000Y-66705480D01*
X84836000Y-65803780D01*
X84836000Y-65504060D01*
X84836000Y-64604900D01*
X84836000Y-64206120D01*
X84836000Y-62405260D01*
X84773163Y-62089355D01*
X84594217Y-61821543D01*
X84326405Y-61642597D01*
X84010500Y-61579760D01*
X76009500Y-61579760D01*
X75693595Y-61642597D01*
X75425783Y-61821543D01*
X75246837Y-62089355D01*
X75184000Y-62405260D01*
X75184000Y-62905640D01*
X75184000Y-63406020D01*
X75184000Y-64305180D01*
X75184000Y-64604900D01*
X75184000Y-64904620D01*
X75184000Y-65204340D01*
X75184000Y-65504060D01*
X75184000Y-65803780D01*
X75184000Y-66405760D01*
X75184000Y-67904360D01*
X75184000Y-70406260D01*
X75246837Y-70722165D01*
X75425783Y-70989977D01*
X75693595Y-71168923D01*
X76009500Y-71231760D01*
X76509880Y-71231760D01*
X83510120Y-71231760D01*
X84010500Y-71231760D01*
X84326405Y-71168923D01*
X84594217Y-70989977D01*
X84773163Y-70722165D01*
X84836000Y-70406260D01*
X84836000Y-72208000D01*
X66434047Y-72208000D01*
X66434047Y-74922000D01*
X94855953Y-74922000D01*
X94855953Y-89435000D01*
X79604870Y-89435000D01*
X79604870Y-86152191D01*
X79604870Y-84027809D01*
X79442363Y-83210830D01*
X78979581Y-82518228D01*
X78286979Y-82055446D01*
X77470000Y-81892939D01*
X76653021Y-82055446D01*
X75960419Y-82518228D01*
X75497637Y-83210830D01*
X75335130Y-84027809D01*
X75335130Y-86152191D01*
X75497637Y-86969170D01*
X75960419Y-87661772D01*
X76653021Y-88124554D01*
X77470000Y-88287061D01*
X78286979Y-88124554D01*
X78979581Y-87661772D01*
X79442363Y-86969170D01*
X79604870Y-86152191D01*
X79604870Y-89435000D01*
X74524870Y-89435000D01*
X74524870Y-86152191D01*
X74524870Y-84027809D01*
X74362363Y-83210830D01*
X73899581Y-82518228D01*
X73206979Y-82055446D01*
X72390000Y-81892939D01*
X71573021Y-82055446D01*
X70880419Y-82518228D01*
X70417637Y-83210830D01*
X70255130Y-84027809D01*
X70255130Y-86152191D01*
X70417637Y-86969170D01*
X70880419Y-87661772D01*
X71573021Y-88124554D01*
X72390000Y-88287061D01*
X73206979Y-88124554D01*
X73899581Y-87661772D01*
X74362363Y-86969170D01*
X74524870Y-86152191D01*
X74524870Y-89435000D01*
X68973440Y-89435000D01*
X68973440Y-83566000D01*
X68973440Y-81534000D01*
X68926463Y-81291877D01*
X68786673Y-81079073D01*
X68575640Y-80936623D01*
X68326000Y-80886560D01*
X66294000Y-80886560D01*
X66051877Y-80933537D01*
X65839073Y-81073327D01*
X65696623Y-81284360D01*
X65646560Y-81534000D01*
X65646560Y-83566000D01*
X65693537Y-83808123D01*
X65833327Y-84020927D01*
X65986256Y-84124156D01*
X65784675Y-84425845D01*
X65659000Y-85057655D01*
X65659000Y-85122345D01*
X65784675Y-85754155D01*
X66142567Y-86289778D01*
X66678190Y-86647670D01*
X67310000Y-86773345D01*
X67941810Y-86647670D01*
X68477433Y-86289778D01*
X68835325Y-85754155D01*
X68961000Y-85122345D01*
X68961000Y-85057655D01*
X68835325Y-84425845D01*
X68633372Y-84123601D01*
X68780927Y-84026673D01*
X68923377Y-83815640D01*
X68973440Y-83566000D01*
X68973440Y-89435000D01*
X63595707Y-89435000D01*
X63595707Y-83298116D01*
X63195359Y-82329201D01*
X62454698Y-81587246D01*
X61486483Y-81185208D01*
X61188600Y-81184948D01*
X61188600Y-66069359D01*
X61188600Y-66010641D01*
X61074526Y-65437152D01*
X60749670Y-64950971D01*
X60478827Y-64770000D01*
X60749670Y-64589029D01*
X61074526Y-64102848D01*
X61188600Y-63529359D01*
X61188600Y-63470641D01*
X61074526Y-62897152D01*
X60749670Y-62410971D01*
X60478827Y-62230000D01*
X60749670Y-62049029D01*
X61074526Y-61562848D01*
X61188600Y-60989359D01*
X61188600Y-60930641D01*
X61074526Y-60357152D01*
X60749670Y-59870971D01*
X60478827Y-59690000D01*
X60749670Y-59509029D01*
X61074526Y-59022848D01*
X61188600Y-58449359D01*
X61188600Y-58390641D01*
X61074526Y-57817152D01*
X60749670Y-57330971D01*
X60478827Y-57150000D01*
X60749670Y-56969029D01*
X61074526Y-56482848D01*
X61188600Y-55909359D01*
X61188600Y-55850641D01*
X61074526Y-55277152D01*
X60749670Y-54790971D01*
X60478827Y-54610000D01*
X60749670Y-54429029D01*
X61074526Y-53942848D01*
X61188600Y-53369359D01*
X61188600Y-53310641D01*
X61074526Y-52737152D01*
X60749670Y-52250971D01*
X60478827Y-52070000D01*
X60749670Y-51889029D01*
X61074526Y-51402848D01*
X61188600Y-50829359D01*
X61188600Y-50770641D01*
X61074526Y-50197152D01*
X60749670Y-49710971D01*
X60478827Y-49530000D01*
X60749670Y-49349029D01*
X61074526Y-48862848D01*
X61188600Y-48289359D01*
X61188600Y-48230641D01*
X61074526Y-47657152D01*
X60749670Y-47170971D01*
X60478839Y-46990007D01*
X60896821Y-46608490D01*
X61144968Y-46079027D01*
X61024469Y-45847000D01*
X59817000Y-45847000D01*
X59817000Y-45867000D01*
X59563000Y-45867000D01*
X59563000Y-45847000D01*
X59543000Y-45847000D01*
X59543000Y-45593000D01*
X59563000Y-45593000D01*
X59563000Y-45573000D01*
X59817000Y-45573000D01*
X59817000Y-45593000D01*
X61024469Y-45593000D01*
X61144968Y-45360973D01*
X60896821Y-44831510D01*
X60478839Y-44449992D01*
X60749670Y-44269029D01*
X61074526Y-43782848D01*
X61188600Y-43209359D01*
X61188600Y-43150641D01*
X61074526Y-42577152D01*
X60749670Y-42090971D01*
X60263489Y-41766115D01*
X59690000Y-41652041D01*
X59116511Y-41766115D01*
X58630330Y-42090971D01*
X58620233Y-42106081D01*
X58614063Y-42074277D01*
X58474273Y-41861473D01*
X58263240Y-41719023D01*
X58013600Y-41668960D01*
X56286400Y-41668960D01*
X56044277Y-41715937D01*
X55831473Y-41855727D01*
X55689023Y-42066760D01*
X55638960Y-42316400D01*
X55638960Y-44043600D01*
X55685937Y-44285723D01*
X55825727Y-44498527D01*
X56036760Y-44640977D01*
X56078104Y-44649268D01*
X55765474Y-45117152D01*
X55651400Y-45690641D01*
X55651400Y-45749359D01*
X55765474Y-46322848D01*
X56090330Y-46809029D01*
X56361172Y-46990000D01*
X56090330Y-47170971D01*
X55765474Y-47657152D01*
X55651400Y-48230641D01*
X55651400Y-48289359D01*
X55765474Y-48862848D01*
X56090330Y-49349029D01*
X56361172Y-49530000D01*
X56090330Y-49710971D01*
X55765474Y-50197152D01*
X55651400Y-50770641D01*
X55651400Y-50829359D01*
X55765474Y-51402848D01*
X56090330Y-51889029D01*
X56361172Y-52070000D01*
X56090330Y-52250971D01*
X55765474Y-52737152D01*
X55651400Y-53310641D01*
X55651400Y-53369359D01*
X55765474Y-53942848D01*
X56090330Y-54429029D01*
X56361172Y-54610000D01*
X56090330Y-54790971D01*
X55765474Y-55277152D01*
X55651400Y-55850641D01*
X55651400Y-55909359D01*
X55765474Y-56482848D01*
X56090330Y-56969029D01*
X56361172Y-57150000D01*
X56090330Y-57330971D01*
X55765474Y-57817152D01*
X55651400Y-58390641D01*
X55651400Y-58449359D01*
X55765474Y-59022848D01*
X56090330Y-59509029D01*
X56361172Y-59690000D01*
X56090330Y-59870971D01*
X55765474Y-60357152D01*
X55651400Y-60930641D01*
X55651400Y-60989359D01*
X55765474Y-61562848D01*
X56090330Y-62049029D01*
X56361172Y-62230000D01*
X56090330Y-62410971D01*
X55765474Y-62897152D01*
X55651400Y-63470641D01*
X55651400Y-63529359D01*
X55765474Y-64102848D01*
X56090330Y-64589029D01*
X56361172Y-64770000D01*
X56090330Y-64950971D01*
X55765474Y-65437152D01*
X55651400Y-66010641D01*
X55651400Y-66069359D01*
X55765474Y-66642848D01*
X56090330Y-67129029D01*
X56576511Y-67453885D01*
X57150000Y-67567959D01*
X57723489Y-67453885D01*
X58209670Y-67129029D01*
X58420000Y-66814248D01*
X58630330Y-67129029D01*
X59116511Y-67453885D01*
X59690000Y-67567959D01*
X60263489Y-67453885D01*
X60749670Y-67129029D01*
X61074526Y-66642848D01*
X61188600Y-66069359D01*
X61188600Y-81184948D01*
X60438116Y-81184293D01*
X59469201Y-81584641D01*
X58727246Y-82325302D01*
X58325208Y-83293517D01*
X58324293Y-84341884D01*
X58724641Y-85310799D01*
X59465302Y-86052754D01*
X60433517Y-86454792D01*
X61481884Y-86455707D01*
X62450799Y-86055359D01*
X63192754Y-85314698D01*
X63594792Y-84346483D01*
X63595707Y-83298116D01*
X63595707Y-89435000D01*
X55345000Y-89435000D01*
X55345000Y-41375000D01*
X104675000Y-41375000D01*
X104675000Y-89435000D01*
M02*
