G04 #@! TF.FileFunction,Soldermask,Top*
%FSLAX46Y46*%
G04 Gerber Fmt 4.6, Leading zero omitted, Abs format (unit mm)*
G04 Created by KiCad (PCBNEW (2014-12-04 BZR 5312)-product) date 9.1.2015 14:21:54*
%MOMM*%
G01*
G04 APERTURE LIST*
%ADD10C,0.100000*%
%ADD11R,1.198880X1.198880*%
%ADD12R,1.800860X3.500120*%
%ADD13R,0.600000X1.550000*%
%ADD14R,2.032000X2.032000*%
%ADD15O,2.032000X2.032000*%
%ADD16R,1.727200X1.727200*%
%ADD17O,1.727200X1.727200*%
%ADD18R,1.700000X1.900000*%
%ADD19R,1.397000X0.889000*%
%ADD20R,0.889000X1.397000*%
%ADD21R,2.032000X1.524000*%
%ADD22O,2.999740X5.001260*%
G04 APERTURE END LIST*
D10*
D11*
X90170000Y-84040980D03*
X90170000Y-86139020D03*
D12*
X68580000Y-73619360D03*
X68580000Y-68620640D03*
X81280000Y-73619360D03*
X81280000Y-68620640D03*
D13*
X76835000Y-50640000D03*
X75565000Y-50640000D03*
X74295000Y-50640000D03*
X73025000Y-50640000D03*
X73025000Y-56040000D03*
X74295000Y-56040000D03*
X75565000Y-56040000D03*
X76835000Y-56040000D03*
D14*
X67310000Y-82550000D03*
D15*
X67310000Y-85090000D03*
D16*
X57150000Y-43180000D03*
D17*
X59690000Y-43180000D03*
X57150000Y-45720000D03*
X59690000Y-45720000D03*
X57150000Y-48260000D03*
X59690000Y-48260000D03*
X57150000Y-50800000D03*
X59690000Y-50800000D03*
X57150000Y-53340000D03*
X59690000Y-53340000D03*
X57150000Y-55880000D03*
X59690000Y-55880000D03*
X57150000Y-58420000D03*
X59690000Y-58420000D03*
X57150000Y-60960000D03*
X59690000Y-60960000D03*
X57150000Y-63500000D03*
X59690000Y-63500000D03*
X57150000Y-66040000D03*
X59690000Y-66040000D03*
D16*
X100330000Y-43180000D03*
D17*
X102870000Y-43180000D03*
X100330000Y-45720000D03*
X102870000Y-45720000D03*
X100330000Y-48260000D03*
X102870000Y-48260000D03*
X100330000Y-50800000D03*
X102870000Y-50800000D03*
X100330000Y-53340000D03*
X102870000Y-53340000D03*
X100330000Y-55880000D03*
X102870000Y-55880000D03*
X100330000Y-58420000D03*
X102870000Y-58420000D03*
X100330000Y-60960000D03*
X102870000Y-60960000D03*
X100330000Y-63500000D03*
X102870000Y-63500000D03*
X100330000Y-66040000D03*
X102870000Y-66040000D03*
D18*
X73780000Y-69070000D03*
X73780000Y-73170000D03*
X76080000Y-73170000D03*
X76080000Y-69070000D03*
D19*
X90170000Y-79692500D03*
X90170000Y-77787500D03*
D11*
X92710000Y-84040980D03*
X92710000Y-86139020D03*
D19*
X92710000Y-79692500D03*
X92710000Y-77787500D03*
D20*
X67627500Y-52070000D03*
X69532500Y-52070000D03*
X67627500Y-54610000D03*
X69532500Y-54610000D03*
D19*
X80010000Y-54292500D03*
X80010000Y-52387500D03*
D20*
X73977500Y-46990000D03*
X75882500Y-46990000D03*
D21*
X77470000Y-60579000D03*
X77470000Y-63881000D03*
X72390000Y-60579000D03*
X72390000Y-63881000D03*
X82550000Y-85471000D03*
X82550000Y-82169000D03*
D22*
X72390000Y-85090000D03*
X77470000Y-85090000D03*
M02*
