G04 #@! TF.FileFunction,Copper,L1,Top,Signal*
%FSLAX46Y46*%
G04 Gerber Fmt 4.6, Leading zero omitted, Abs format (unit mm)*
G04 Created by KiCad (PCBNEW (2014-12-04 BZR 5312)-product) date 9.1.2015 14:21:54*
%MOMM*%
G01*
G04 APERTURE LIST*
%ADD10C,0.100000*%
%ADD11R,1.198880X1.198880*%
%ADD12R,1.800860X3.500120*%
%ADD13R,0.600000X1.550000*%
%ADD14R,2.032000X2.032000*%
%ADD15O,2.032000X2.032000*%
%ADD16R,1.727200X1.727200*%
%ADD17O,1.727200X1.727200*%
%ADD18R,1.700000X1.900000*%
%ADD19R,1.397000X0.889000*%
%ADD20R,0.889000X1.397000*%
%ADD21R,2.032000X1.524000*%
%ADD22O,2.999740X5.001260*%
%ADD23C,0.889000*%
%ADD24C,0.762000*%
%ADD25C,0.600000*%
%ADD26C,0.508000*%
%ADD27C,0.350000*%
%ADD28C,0.254000*%
G04 APERTURE END LIST*
D10*
D11*
X90170000Y-84040980D03*
X90170000Y-86139020D03*
D12*
X68580000Y-73619360D03*
X68580000Y-68620640D03*
X81280000Y-73619360D03*
X81280000Y-68620640D03*
D13*
X76835000Y-50640000D03*
X75565000Y-50640000D03*
X74295000Y-50640000D03*
X73025000Y-50640000D03*
X73025000Y-56040000D03*
X74295000Y-56040000D03*
X75565000Y-56040000D03*
X76835000Y-56040000D03*
D14*
X67310000Y-82550000D03*
D15*
X67310000Y-85090000D03*
D16*
X57150000Y-43180000D03*
D17*
X59690000Y-43180000D03*
X57150000Y-45720000D03*
X59690000Y-45720000D03*
X57150000Y-48260000D03*
X59690000Y-48260000D03*
X57150000Y-50800000D03*
X59690000Y-50800000D03*
X57150000Y-53340000D03*
X59690000Y-53340000D03*
X57150000Y-55880000D03*
X59690000Y-55880000D03*
X57150000Y-58420000D03*
X59690000Y-58420000D03*
X57150000Y-60960000D03*
X59690000Y-60960000D03*
X57150000Y-63500000D03*
X59690000Y-63500000D03*
X57150000Y-66040000D03*
X59690000Y-66040000D03*
D16*
X100330000Y-43180000D03*
D17*
X102870000Y-43180000D03*
X100330000Y-45720000D03*
X102870000Y-45720000D03*
X100330000Y-48260000D03*
X102870000Y-48260000D03*
X100330000Y-50800000D03*
X102870000Y-50800000D03*
X100330000Y-53340000D03*
X102870000Y-53340000D03*
X100330000Y-55880000D03*
X102870000Y-55880000D03*
X100330000Y-58420000D03*
X102870000Y-58420000D03*
X100330000Y-60960000D03*
X102870000Y-60960000D03*
X100330000Y-63500000D03*
X102870000Y-63500000D03*
X100330000Y-66040000D03*
X102870000Y-66040000D03*
D18*
X73780000Y-69070000D03*
X73780000Y-73170000D03*
X76080000Y-73170000D03*
X76080000Y-69070000D03*
D19*
X90170000Y-79692500D03*
X90170000Y-77787500D03*
D11*
X92710000Y-84040980D03*
X92710000Y-86139020D03*
D19*
X92710000Y-79692500D03*
X92710000Y-77787500D03*
D20*
X67627500Y-52070000D03*
X69532500Y-52070000D03*
X67627500Y-54610000D03*
X69532500Y-54610000D03*
D19*
X80010000Y-54292500D03*
X80010000Y-52387500D03*
D20*
X73977500Y-46990000D03*
X75882500Y-46990000D03*
D21*
X77470000Y-60579000D03*
X77470000Y-63881000D03*
X72390000Y-60579000D03*
X72390000Y-63881000D03*
X82550000Y-85471000D03*
X82550000Y-82169000D03*
D22*
X72390000Y-85090000D03*
X77470000Y-85090000D03*
D23*
X104140000Y-88900000D03*
X68580000Y-76835000D03*
X69850000Y-76835000D03*
X67310000Y-76835000D03*
X55880000Y-88900000D03*
X81280000Y-76835000D03*
X82550000Y-76835000D03*
X80010000Y-76835000D03*
X71120000Y-46990000D03*
X71120000Y-49530000D03*
X77470000Y-46355000D03*
X77470000Y-47625000D03*
D24*
X70167500Y-43180000D02*
X73977500Y-46990000D01*
X59690000Y-43180000D02*
X70167500Y-43180000D01*
D25*
X74295000Y-47307500D02*
X73977500Y-46990000D01*
X74295000Y-50640000D02*
X74295000Y-47307500D01*
X92710000Y-86139020D02*
X92710000Y-88900000D01*
X90170000Y-86139020D02*
X90170000Y-88900000D01*
X90170000Y-88900000D02*
X92710000Y-88900000D01*
X92710000Y-88900000D02*
X104140000Y-88900000D01*
X69850000Y-76835000D02*
X70485000Y-76835000D01*
X68580000Y-73619360D02*
X68580000Y-76835000D01*
X55880000Y-88900000D02*
X55880000Y-88265000D01*
X68580000Y-76835000D02*
X67310000Y-76835000D01*
X82550000Y-76835000D02*
X83185000Y-76835000D01*
X81280000Y-73619360D02*
X81280000Y-76835000D01*
X81280000Y-76835000D02*
X80010000Y-76835000D01*
X71120000Y-46990000D02*
X71120000Y-49530000D01*
X75882500Y-46990000D02*
X77470000Y-46990000D01*
X77470000Y-46990000D02*
X77470000Y-46355000D01*
X77470000Y-47625000D02*
X77470000Y-46990000D01*
D26*
X73430640Y-68620640D02*
X73930000Y-69120000D01*
X68580000Y-68620640D02*
X73430640Y-68620640D01*
X73430640Y-68620640D02*
X73930000Y-69120000D01*
X73430640Y-64540640D02*
X73430640Y-68620640D01*
X72771000Y-63881000D02*
X73430640Y-64540640D01*
X72390000Y-63881000D02*
X72771000Y-63881000D01*
X76429360Y-68620640D02*
X75930000Y-69120000D01*
X81280000Y-68620640D02*
X76429360Y-68620640D01*
X76429360Y-68620640D02*
X75930000Y-69120000D01*
X76429360Y-64540640D02*
X76429360Y-68620640D01*
X77089000Y-63881000D02*
X76429360Y-64540640D01*
X77470000Y-63881000D02*
X77089000Y-63881000D01*
D27*
X90170000Y-84040980D02*
X90170000Y-79692500D01*
X90170000Y-77787500D02*
X90487500Y-77787500D01*
X90487500Y-77787500D02*
X91440000Y-76835000D01*
X91440000Y-76835000D02*
X91440000Y-74295000D01*
X100330000Y-60960000D02*
X99060000Y-60960000D01*
X91440000Y-74295000D02*
X91440000Y-68580000D01*
X91440000Y-68580000D02*
X99060000Y-60960000D01*
X92710000Y-84040980D02*
X92710000Y-79692500D01*
X92710000Y-77787500D02*
X92710000Y-74295000D01*
X92710000Y-69215000D02*
X98425000Y-63500000D01*
X98425000Y-63500000D02*
X100330000Y-63500000D01*
X92710000Y-74295000D02*
X92710000Y-69215000D01*
X71120000Y-53975000D02*
X72390000Y-52705000D01*
X72390000Y-52705000D02*
X76200000Y-52705000D01*
X76200000Y-52705000D02*
X76835000Y-52070000D01*
X76835000Y-52070000D02*
X76835000Y-50640000D01*
X69850000Y-53975000D02*
X71120000Y-53975000D01*
X69532500Y-54610000D02*
X69850000Y-53975000D01*
X72390000Y-51562000D02*
X70040500Y-51562000D01*
X70040500Y-51562000D02*
X69532500Y-52070000D01*
X73025000Y-50927000D02*
X72390000Y-51562000D01*
X73025000Y-50640000D02*
X73025000Y-50927000D01*
X74295000Y-58674000D02*
X72390000Y-60579000D01*
X74295000Y-56040000D02*
X74295000Y-58674000D01*
X75565000Y-58674000D02*
X77470000Y-60579000D01*
X75565000Y-56040000D02*
X75565000Y-58674000D01*
X76835000Y-55245000D02*
X76835000Y-56040000D01*
X77787500Y-54292500D02*
X76835000Y-55245000D01*
X80010000Y-54292500D02*
X77787500Y-54292500D01*
D28*
X82550000Y-85471000D02*
X82169000Y-85471000D01*
D27*
X70485000Y-88265000D02*
X72390000Y-88265000D01*
X82169000Y-85471000D02*
X79375000Y-88265000D01*
X79375000Y-88265000D02*
X72390000Y-88265000D01*
X67310000Y-85090000D02*
X70485000Y-88265000D01*
D28*
X67310000Y-85090000D02*
X67310000Y-85090000D01*
X60960000Y-52070000D02*
X58420000Y-52070000D01*
X58420000Y-52070000D02*
X57150000Y-53340000D01*
D27*
X67627500Y-52070000D02*
X60960000Y-52070000D01*
D28*
X58420000Y-54610000D02*
X57150000Y-55880000D01*
X60960000Y-54610000D02*
X58420000Y-54610000D01*
D27*
X67627500Y-54610000D02*
X60960000Y-54610000D01*
D26*
X73930000Y-82838800D02*
X72948800Y-83820000D01*
X73930000Y-73120000D02*
X73930000Y-82838800D01*
X72948800Y-84378800D02*
X72948800Y-83820000D01*
X71120000Y-82550000D02*
X72948800Y-84378800D01*
X67310000Y-82550000D02*
X71120000Y-82550000D01*
X75930000Y-82838800D02*
X76911200Y-83820000D01*
X75930000Y-73120000D02*
X75930000Y-82838800D01*
X76911200Y-84378800D02*
X76911200Y-83820000D01*
X79121000Y-82169000D02*
X76911200Y-84378800D01*
X82550000Y-82169000D02*
X79121000Y-82169000D01*
D28*
G36*
X73360000Y-49224578D02*
X73325000Y-49217560D01*
X72725000Y-49217560D01*
X72482877Y-49264537D01*
X72270073Y-49404327D01*
X72127623Y-49615360D01*
X72077560Y-49865000D01*
X72077560Y-50728927D01*
X72054487Y-50752000D01*
X70116323Y-50752000D01*
X69977000Y-50724060D01*
X69088000Y-50724060D01*
X68845877Y-50771037D01*
X68633073Y-50910827D01*
X68580277Y-50989041D01*
X68532673Y-50916573D01*
X68321640Y-50774123D01*
X68072000Y-50724060D01*
X67183000Y-50724060D01*
X66940877Y-50771037D01*
X66728073Y-50910827D01*
X66585623Y-51121860D01*
X66557920Y-51260000D01*
X61102940Y-51260000D01*
X61188600Y-50829359D01*
X61188600Y-50770641D01*
X61074526Y-50197152D01*
X60749670Y-49710971D01*
X60478827Y-49530000D01*
X60749670Y-49349029D01*
X61074526Y-48862848D01*
X61188600Y-48289359D01*
X61188600Y-48230641D01*
X61074526Y-47657152D01*
X60749670Y-47170971D01*
X60478839Y-46990007D01*
X60896821Y-46608490D01*
X61144968Y-46079027D01*
X61024469Y-45847000D01*
X59817000Y-45847000D01*
X59817000Y-45867000D01*
X59563000Y-45867000D01*
X59563000Y-45847000D01*
X59543000Y-45847000D01*
X59543000Y-45593000D01*
X59563000Y-45593000D01*
X59563000Y-45573000D01*
X59817000Y-45573000D01*
X59817000Y-45593000D01*
X61024469Y-45593000D01*
X61144968Y-45360973D01*
X60896821Y-44831510D01*
X60478839Y-44449992D01*
X60749670Y-44269029D01*
X60798466Y-44196000D01*
X69746659Y-44196000D01*
X72885560Y-47334900D01*
X72885560Y-47688500D01*
X72932537Y-47930623D01*
X73072327Y-48143427D01*
X73283360Y-48285877D01*
X73360000Y-48301246D01*
X73360000Y-49224578D01*
X73360000Y-49224578D01*
G37*
X73360000Y-49224578D02*
X73325000Y-49217560D01*
X72725000Y-49217560D01*
X72482877Y-49264537D01*
X72270073Y-49404327D01*
X72127623Y-49615360D01*
X72077560Y-49865000D01*
X72077560Y-50728927D01*
X72054487Y-50752000D01*
X70116323Y-50752000D01*
X69977000Y-50724060D01*
X69088000Y-50724060D01*
X68845877Y-50771037D01*
X68633073Y-50910827D01*
X68580277Y-50989041D01*
X68532673Y-50916573D01*
X68321640Y-50774123D01*
X68072000Y-50724060D01*
X67183000Y-50724060D01*
X66940877Y-50771037D01*
X66728073Y-50910827D01*
X66585623Y-51121860D01*
X66557920Y-51260000D01*
X61102940Y-51260000D01*
X61188600Y-50829359D01*
X61188600Y-50770641D01*
X61074526Y-50197152D01*
X60749670Y-49710971D01*
X60478827Y-49530000D01*
X60749670Y-49349029D01*
X61074526Y-48862848D01*
X61188600Y-48289359D01*
X61188600Y-48230641D01*
X61074526Y-47657152D01*
X60749670Y-47170971D01*
X60478839Y-46990007D01*
X60896821Y-46608490D01*
X61144968Y-46079027D01*
X61024469Y-45847000D01*
X59817000Y-45847000D01*
X59817000Y-45867000D01*
X59563000Y-45867000D01*
X59563000Y-45847000D01*
X59543000Y-45847000D01*
X59543000Y-45593000D01*
X59563000Y-45593000D01*
X59563000Y-45573000D01*
X59817000Y-45573000D01*
X59817000Y-45593000D01*
X61024469Y-45593000D01*
X61144968Y-45360973D01*
X60896821Y-44831510D01*
X60478839Y-44449992D01*
X60749670Y-44269029D01*
X60798466Y-44196000D01*
X69746659Y-44196000D01*
X72885560Y-47334900D01*
X72885560Y-47688500D01*
X72932537Y-47930623D01*
X73072327Y-48143427D01*
X73283360Y-48285877D01*
X73360000Y-48301246D01*
X73360000Y-49224578D01*
G36*
X104675000Y-89435000D02*
X104368600Y-89435000D01*
X104368600Y-66069359D01*
X104368600Y-66010641D01*
X104254526Y-65437152D01*
X103929670Y-64950971D01*
X103658827Y-64770000D01*
X103929670Y-64589029D01*
X104254526Y-64102848D01*
X104368600Y-63529359D01*
X104368600Y-63470641D01*
X104254526Y-62897152D01*
X103929670Y-62410971D01*
X103658827Y-62230000D01*
X103929670Y-62049029D01*
X104254526Y-61562848D01*
X104368600Y-60989359D01*
X104368600Y-60930641D01*
X104254526Y-60357152D01*
X103929670Y-59870971D01*
X103658827Y-59690000D01*
X103929670Y-59509029D01*
X104254526Y-59022848D01*
X104368600Y-58449359D01*
X104368600Y-58390641D01*
X104254526Y-57817152D01*
X103929670Y-57330971D01*
X103658827Y-57150000D01*
X103929670Y-56969029D01*
X104254526Y-56482848D01*
X104368600Y-55909359D01*
X104368600Y-55850641D01*
X104254526Y-55277152D01*
X103929670Y-54790971D01*
X103658827Y-54610000D01*
X103929670Y-54429029D01*
X104254526Y-53942848D01*
X104368600Y-53369359D01*
X104368600Y-53310641D01*
X104254526Y-52737152D01*
X103929670Y-52250971D01*
X103658827Y-52070000D01*
X103929670Y-51889029D01*
X104254526Y-51402848D01*
X104368600Y-50829359D01*
X104368600Y-50770641D01*
X104254526Y-50197152D01*
X103929670Y-49710971D01*
X103658827Y-49530000D01*
X103929670Y-49349029D01*
X104254526Y-48862848D01*
X104368600Y-48289359D01*
X104368600Y-48230641D01*
X104254526Y-47657152D01*
X103929670Y-47170971D01*
X103658827Y-46990000D01*
X103929670Y-46809029D01*
X104254526Y-46322848D01*
X104368600Y-45749359D01*
X104368600Y-45690641D01*
X104254526Y-45117152D01*
X103929670Y-44630971D01*
X103658839Y-44450007D01*
X104076821Y-44068490D01*
X104324968Y-43539027D01*
X104324968Y-42820973D01*
X104076821Y-42291510D01*
X103644947Y-41897312D01*
X103229026Y-41725042D01*
X102997000Y-41846183D01*
X102997000Y-43053000D01*
X104204469Y-43053000D01*
X104324968Y-42820973D01*
X104324968Y-43539027D01*
X104204469Y-43307000D01*
X102997000Y-43307000D01*
X102997000Y-43327000D01*
X102743000Y-43327000D01*
X102743000Y-43307000D01*
X102723000Y-43307000D01*
X102723000Y-43053000D01*
X102743000Y-43053000D01*
X102743000Y-41846183D01*
X102510974Y-41725042D01*
X102095053Y-41897312D01*
X101810178Y-42157334D01*
X101794063Y-42074277D01*
X101654273Y-41861473D01*
X101443240Y-41719023D01*
X101193600Y-41668960D01*
X99466400Y-41668960D01*
X99224277Y-41715937D01*
X99011473Y-41855727D01*
X98869023Y-42066760D01*
X98818960Y-42316400D01*
X98818960Y-44043600D01*
X98865937Y-44285723D01*
X99005727Y-44498527D01*
X99216760Y-44640977D01*
X99258104Y-44649268D01*
X98945474Y-45117152D01*
X98831400Y-45690641D01*
X98831400Y-45749359D01*
X98945474Y-46322848D01*
X99270330Y-46809029D01*
X99541172Y-46990000D01*
X99270330Y-47170971D01*
X98945474Y-47657152D01*
X98831400Y-48230641D01*
X98831400Y-48289359D01*
X98945474Y-48862848D01*
X99270330Y-49349029D01*
X99541172Y-49530000D01*
X99270330Y-49710971D01*
X98945474Y-50197152D01*
X98831400Y-50770641D01*
X98831400Y-50829359D01*
X98945474Y-51402848D01*
X99270330Y-51889029D01*
X99541172Y-52070000D01*
X99270330Y-52250971D01*
X98945474Y-52737152D01*
X98831400Y-53310641D01*
X98831400Y-53369359D01*
X98945474Y-53942848D01*
X99270330Y-54429029D01*
X99541172Y-54610000D01*
X99270330Y-54790971D01*
X98945474Y-55277152D01*
X98831400Y-55850641D01*
X98831400Y-55909359D01*
X98945474Y-56482848D01*
X99270330Y-56969029D01*
X99541172Y-57150000D01*
X99270330Y-57330971D01*
X98945474Y-57817152D01*
X98831400Y-58390641D01*
X98831400Y-58449359D01*
X98945474Y-59022848D01*
X99270330Y-59509029D01*
X99541172Y-59690000D01*
X99270330Y-59870971D01*
X99083888Y-60150000D01*
X99060000Y-60150000D01*
X98750026Y-60211658D01*
X98618635Y-60299451D01*
X98487243Y-60387244D01*
X90867244Y-68007244D01*
X90691658Y-68270026D01*
X90630000Y-68580000D01*
X90630000Y-74295000D01*
X90630000Y-76499487D01*
X90433927Y-76695560D01*
X89471500Y-76695560D01*
X89229377Y-76742537D01*
X89016573Y-76882327D01*
X88874123Y-77093360D01*
X88824060Y-77343000D01*
X88824060Y-78232000D01*
X88871037Y-78474123D01*
X89010827Y-78686927D01*
X89089041Y-78739722D01*
X89016573Y-78787327D01*
X88874123Y-78998360D01*
X88824060Y-79248000D01*
X88824060Y-80137000D01*
X88871037Y-80379123D01*
X89010827Y-80591927D01*
X89221860Y-80734377D01*
X89360000Y-80762079D01*
X89360000Y-82834953D01*
X89328437Y-82841077D01*
X89115633Y-82980867D01*
X88973183Y-83191900D01*
X88923120Y-83441540D01*
X88923120Y-84640420D01*
X88970097Y-84882543D01*
X89109887Y-85095347D01*
X89113994Y-85098119D01*
X89032233Y-85179882D01*
X88935560Y-85413271D01*
X88935560Y-85853270D01*
X89094310Y-86012020D01*
X90043000Y-86012020D01*
X90043000Y-85992020D01*
X90297000Y-85992020D01*
X90297000Y-86012020D01*
X91245690Y-86012020D01*
X91404440Y-85853270D01*
X91404440Y-85413271D01*
X91307767Y-85179882D01*
X91226225Y-85098339D01*
X91366817Y-84890060D01*
X91416880Y-84640420D01*
X91416880Y-83441540D01*
X91369903Y-83199417D01*
X91230113Y-82986613D01*
X91019080Y-82844163D01*
X90980000Y-82836325D01*
X90980000Y-80762806D01*
X91110623Y-80737463D01*
X91323427Y-80597673D01*
X91440586Y-80424106D01*
X91550827Y-80591927D01*
X91761860Y-80734377D01*
X91900000Y-80762079D01*
X91900000Y-82834953D01*
X91868437Y-82841077D01*
X91655633Y-82980867D01*
X91513183Y-83191900D01*
X91463120Y-83441540D01*
X91463120Y-84640420D01*
X91510097Y-84882543D01*
X91649887Y-85095347D01*
X91653994Y-85098119D01*
X91572233Y-85179882D01*
X91475560Y-85413271D01*
X91475560Y-85853270D01*
X91634310Y-86012020D01*
X92583000Y-86012020D01*
X92583000Y-85992020D01*
X92837000Y-85992020D01*
X92837000Y-86012020D01*
X93785690Y-86012020D01*
X93944440Y-85853270D01*
X93944440Y-85413271D01*
X93847767Y-85179882D01*
X93766225Y-85098339D01*
X93906817Y-84890060D01*
X93956880Y-84640420D01*
X93956880Y-83441540D01*
X93909903Y-83199417D01*
X93770113Y-82986613D01*
X93559080Y-82844163D01*
X93520000Y-82836325D01*
X93520000Y-80762806D01*
X93650623Y-80737463D01*
X93863427Y-80597673D01*
X94005877Y-80386640D01*
X94055940Y-80137000D01*
X94055940Y-79248000D01*
X94008963Y-79005877D01*
X93869173Y-78793073D01*
X93790958Y-78740277D01*
X93863427Y-78692673D01*
X94005877Y-78481640D01*
X94055940Y-78232000D01*
X94055940Y-77343000D01*
X94008963Y-77100877D01*
X93869173Y-76888073D01*
X93658140Y-76745623D01*
X93520000Y-76717920D01*
X93520000Y-74295000D01*
X93520000Y-69550512D01*
X98760512Y-64310000D01*
X99083888Y-64310000D01*
X99270330Y-64589029D01*
X99541172Y-64770000D01*
X99270330Y-64950971D01*
X98945474Y-65437152D01*
X98831400Y-66010641D01*
X98831400Y-66069359D01*
X98945474Y-66642848D01*
X99270330Y-67129029D01*
X99756511Y-67453885D01*
X100330000Y-67567959D01*
X100903489Y-67453885D01*
X101389670Y-67129029D01*
X101600000Y-66814248D01*
X101810330Y-67129029D01*
X102296511Y-67453885D01*
X102870000Y-67567959D01*
X103443489Y-67453885D01*
X103929670Y-67129029D01*
X104254526Y-66642848D01*
X104368600Y-66069359D01*
X104368600Y-89435000D01*
X101695707Y-89435000D01*
X101695707Y-83298116D01*
X101295359Y-82329201D01*
X100554698Y-81587246D01*
X99586483Y-81185208D01*
X98538116Y-81184293D01*
X97569201Y-81584641D01*
X96827246Y-82325302D01*
X96425208Y-83293517D01*
X96424293Y-84341884D01*
X96824641Y-85310799D01*
X97565302Y-86052754D01*
X98533517Y-86454792D01*
X99581884Y-86455707D01*
X100550799Y-86055359D01*
X101292754Y-85314698D01*
X101694792Y-84346483D01*
X101695707Y-83298116D01*
X101695707Y-89435000D01*
X93944440Y-89435000D01*
X93944440Y-86864769D01*
X93944440Y-86424770D01*
X93785690Y-86266020D01*
X92837000Y-86266020D01*
X92837000Y-87214710D01*
X92995750Y-87373460D01*
X93183131Y-87373460D01*
X93435750Y-87373460D01*
X93669139Y-87276787D01*
X93847767Y-87098158D01*
X93944440Y-86864769D01*
X93944440Y-89435000D01*
X92583000Y-89435000D01*
X92583000Y-87214710D01*
X92583000Y-86266020D01*
X91634310Y-86266020D01*
X91475560Y-86424770D01*
X91475560Y-86864769D01*
X91572233Y-87098158D01*
X91750861Y-87276787D01*
X91984250Y-87373460D01*
X92236869Y-87373460D01*
X92424250Y-87373460D01*
X92583000Y-87214710D01*
X92583000Y-89435000D01*
X91404440Y-89435000D01*
X91404440Y-86864769D01*
X91404440Y-86424770D01*
X91245690Y-86266020D01*
X90297000Y-86266020D01*
X90297000Y-87214710D01*
X90455750Y-87373460D01*
X90643131Y-87373460D01*
X90895750Y-87373460D01*
X91129139Y-87276787D01*
X91307767Y-87098158D01*
X91404440Y-86864769D01*
X91404440Y-89435000D01*
X90043000Y-89435000D01*
X90043000Y-87214710D01*
X90043000Y-86266020D01*
X89094310Y-86266020D01*
X88935560Y-86424770D01*
X88935560Y-86864769D01*
X89032233Y-87098158D01*
X89210861Y-87276787D01*
X89444250Y-87373460D01*
X89696869Y-87373460D01*
X89884250Y-87373460D01*
X90043000Y-87214710D01*
X90043000Y-89435000D01*
X84213440Y-89435000D01*
X84213440Y-86233000D01*
X84213440Y-84709000D01*
X84166463Y-84466877D01*
X84026673Y-84254073D01*
X83815640Y-84111623D01*
X83566000Y-84061560D01*
X81534000Y-84061560D01*
X81291877Y-84108537D01*
X81079073Y-84248327D01*
X80936623Y-84459360D01*
X80886560Y-84709000D01*
X80886560Y-85607927D01*
X79275319Y-87219168D01*
X79442363Y-86969170D01*
X79604870Y-86152191D01*
X79604870Y-84027809D01*
X79442363Y-83210830D01*
X79399922Y-83147313D01*
X79489236Y-83058000D01*
X80911200Y-83058000D01*
X80933537Y-83173123D01*
X81073327Y-83385927D01*
X81284360Y-83528377D01*
X81534000Y-83578440D01*
X83566000Y-83578440D01*
X83808123Y-83531463D01*
X84020927Y-83391673D01*
X84163377Y-83180640D01*
X84213440Y-82931000D01*
X84213440Y-81407000D01*
X84166463Y-81164877D01*
X84026673Y-80952073D01*
X83815640Y-80809623D01*
X83566000Y-80759560D01*
X82827870Y-80759560D01*
X82827870Y-70370700D01*
X82827870Y-66870580D01*
X82780893Y-66628457D01*
X82641103Y-66415653D01*
X82430070Y-66273203D01*
X82180430Y-66223140D01*
X81355940Y-66223140D01*
X81355940Y-54737000D01*
X81355940Y-53848000D01*
X81308963Y-53605877D01*
X81169173Y-53393073D01*
X81095310Y-53343215D01*
X81246827Y-53191698D01*
X81343500Y-52958309D01*
X81343500Y-52673250D01*
X81343500Y-52101750D01*
X81343500Y-51816691D01*
X81246827Y-51583302D01*
X81068199Y-51404673D01*
X80834810Y-51308000D01*
X80582191Y-51308000D01*
X80295750Y-51308000D01*
X80137000Y-51466750D01*
X80137000Y-52260500D01*
X81184750Y-52260500D01*
X81343500Y-52101750D01*
X81343500Y-52673250D01*
X81184750Y-52514500D01*
X80137000Y-52514500D01*
X80137000Y-52534500D01*
X79883000Y-52534500D01*
X79883000Y-52514500D01*
X79883000Y-52260500D01*
X79883000Y-51466750D01*
X79724250Y-51308000D01*
X79437809Y-51308000D01*
X79185190Y-51308000D01*
X78951801Y-51404673D01*
X78773173Y-51583302D01*
X78676500Y-51816691D01*
X78676500Y-52101750D01*
X78835250Y-52260500D01*
X79883000Y-52260500D01*
X79883000Y-52514500D01*
X78835250Y-52514500D01*
X78676500Y-52673250D01*
X78676500Y-52958309D01*
X78773173Y-53191698D01*
X78924306Y-53342832D01*
X78856573Y-53387327D01*
X78792329Y-53482500D01*
X77787500Y-53482500D01*
X77782440Y-53483506D01*
X77782440Y-51415000D01*
X77782440Y-49865000D01*
X77735463Y-49622877D01*
X77595673Y-49410073D01*
X77384640Y-49267623D01*
X77135000Y-49217560D01*
X76962000Y-49217560D01*
X76962000Y-47814810D01*
X76962000Y-47562191D01*
X76962000Y-47275750D01*
X76962000Y-46704250D01*
X76962000Y-46417809D01*
X76962000Y-46165190D01*
X76865327Y-45931801D01*
X76686698Y-45753173D01*
X76453309Y-45656500D01*
X76168250Y-45656500D01*
X76009500Y-45815250D01*
X76009500Y-46863000D01*
X76803250Y-46863000D01*
X76962000Y-46704250D01*
X76962000Y-47275750D01*
X76803250Y-47117000D01*
X76009500Y-47117000D01*
X76009500Y-48164750D01*
X76168250Y-48323500D01*
X76453309Y-48323500D01*
X76686698Y-48226827D01*
X76865327Y-48048199D01*
X76962000Y-47814810D01*
X76962000Y-49217560D01*
X76535000Y-49217560D01*
X76292877Y-49264537D01*
X76208500Y-49319963D01*
X75991310Y-49230000D01*
X75850750Y-49230000D01*
X75692000Y-49388750D01*
X75692000Y-50513000D01*
X75712000Y-50513000D01*
X75712000Y-50767000D01*
X75692000Y-50767000D01*
X75692000Y-50787000D01*
X75438000Y-50787000D01*
X75438000Y-50767000D01*
X75418000Y-50767000D01*
X75418000Y-50513000D01*
X75438000Y-50513000D01*
X75438000Y-49388750D01*
X75279250Y-49230000D01*
X75230000Y-49230000D01*
X75230000Y-48289662D01*
X75311691Y-48323500D01*
X75596750Y-48323500D01*
X75755500Y-48164750D01*
X75755500Y-47117000D01*
X75735500Y-47117000D01*
X75735500Y-46863000D01*
X75755500Y-46863000D01*
X75755500Y-45815250D01*
X75596750Y-45656500D01*
X75311691Y-45656500D01*
X75078302Y-45753173D01*
X74927167Y-45904306D01*
X74882673Y-45836573D01*
X74671640Y-45694123D01*
X74422000Y-45644060D01*
X74068400Y-45644060D01*
X70885920Y-42461580D01*
X70556307Y-42241338D01*
X70491799Y-42228507D01*
X70167500Y-42164000D01*
X60798466Y-42164000D01*
X60749670Y-42090971D01*
X60263489Y-41766115D01*
X59690000Y-41652041D01*
X59116511Y-41766115D01*
X58630330Y-42090971D01*
X58620233Y-42106081D01*
X58614063Y-42074277D01*
X58474273Y-41861473D01*
X58263240Y-41719023D01*
X58013600Y-41668960D01*
X56286400Y-41668960D01*
X56044277Y-41715937D01*
X55831473Y-41855727D01*
X55689023Y-42066760D01*
X55638960Y-42316400D01*
X55638960Y-44043600D01*
X55685937Y-44285723D01*
X55825727Y-44498527D01*
X56036760Y-44640977D01*
X56078104Y-44649268D01*
X55765474Y-45117152D01*
X55651400Y-45690641D01*
X55651400Y-45749359D01*
X55765474Y-46322848D01*
X56090330Y-46809029D01*
X56361172Y-46990000D01*
X56090330Y-47170971D01*
X55765474Y-47657152D01*
X55651400Y-48230641D01*
X55651400Y-48289359D01*
X55765474Y-48862848D01*
X56090330Y-49349029D01*
X56361172Y-49530000D01*
X56090330Y-49710971D01*
X55765474Y-50197152D01*
X55651400Y-50770641D01*
X55651400Y-50829359D01*
X55765474Y-51402848D01*
X56090330Y-51889029D01*
X56361172Y-52070000D01*
X56090330Y-52250971D01*
X55765474Y-52737152D01*
X55651400Y-53310641D01*
X55651400Y-53369359D01*
X55765474Y-53942848D01*
X56090330Y-54429029D01*
X56361172Y-54610000D01*
X56090330Y-54790971D01*
X55765474Y-55277152D01*
X55651400Y-55850641D01*
X55651400Y-55909359D01*
X55765474Y-56482848D01*
X56090330Y-56969029D01*
X56361172Y-57150000D01*
X56090330Y-57330971D01*
X55765474Y-57817152D01*
X55651400Y-58390641D01*
X55651400Y-58449359D01*
X55765474Y-59022848D01*
X56090330Y-59509029D01*
X56361172Y-59690000D01*
X56090330Y-59870971D01*
X55765474Y-60357152D01*
X55651400Y-60930641D01*
X55651400Y-60989359D01*
X55765474Y-61562848D01*
X56090330Y-62049029D01*
X56361172Y-62230000D01*
X56090330Y-62410971D01*
X55765474Y-62897152D01*
X55651400Y-63470641D01*
X55651400Y-63529359D01*
X55765474Y-64102848D01*
X56090330Y-64589029D01*
X56361172Y-64770000D01*
X56090330Y-64950971D01*
X55765474Y-65437152D01*
X55651400Y-66010641D01*
X55651400Y-66069359D01*
X55765474Y-66642848D01*
X56090330Y-67129029D01*
X56576511Y-67453885D01*
X57150000Y-67567959D01*
X57723489Y-67453885D01*
X58209670Y-67129029D01*
X58420000Y-66814248D01*
X58630330Y-67129029D01*
X59116511Y-67453885D01*
X59690000Y-67567959D01*
X60263489Y-67453885D01*
X60749670Y-67129029D01*
X61074526Y-66642848D01*
X61188600Y-66069359D01*
X61188600Y-66010641D01*
X61074526Y-65437152D01*
X60749670Y-64950971D01*
X60478827Y-64770000D01*
X60749670Y-64589029D01*
X61074526Y-64102848D01*
X61188600Y-63529359D01*
X61188600Y-63470641D01*
X61074526Y-62897152D01*
X60749670Y-62410971D01*
X60478827Y-62230000D01*
X60749670Y-62049029D01*
X61074526Y-61562848D01*
X61188600Y-60989359D01*
X61188600Y-60930641D01*
X61074526Y-60357152D01*
X60749670Y-59870971D01*
X60478827Y-59690000D01*
X60749670Y-59509029D01*
X61074526Y-59022848D01*
X61188600Y-58449359D01*
X61188600Y-58390641D01*
X61074526Y-57817152D01*
X60749670Y-57330971D01*
X60478827Y-57150000D01*
X60749670Y-56969029D01*
X61074526Y-56482848D01*
X61188600Y-55909359D01*
X61188600Y-55850641D01*
X61102940Y-55420000D01*
X66557193Y-55420000D01*
X66582537Y-55550623D01*
X66722327Y-55763427D01*
X66933360Y-55905877D01*
X67183000Y-55955940D01*
X68072000Y-55955940D01*
X68314123Y-55908963D01*
X68526927Y-55769173D01*
X68579722Y-55690958D01*
X68627327Y-55763427D01*
X68838360Y-55905877D01*
X69088000Y-55955940D01*
X69977000Y-55955940D01*
X70219123Y-55908963D01*
X70431927Y-55769173D01*
X70574377Y-55558140D01*
X70624440Y-55308500D01*
X70624440Y-54785000D01*
X71120000Y-54785000D01*
X71120000Y-54784999D01*
X71429973Y-54723342D01*
X71429974Y-54723342D01*
X71692756Y-54547756D01*
X72725512Y-53515000D01*
X76200000Y-53515000D01*
X76200000Y-53514999D01*
X76509973Y-53453342D01*
X76509974Y-53453342D01*
X76772756Y-53277756D01*
X77407756Y-52642756D01*
X77407757Y-52642756D01*
X77583342Y-52379974D01*
X77583343Y-52379973D01*
X77645000Y-52070000D01*
X77645000Y-51794084D01*
X77732377Y-51664640D01*
X77782440Y-51415000D01*
X77782440Y-53483506D01*
X77477526Y-53544158D01*
X77346135Y-53631951D01*
X77214743Y-53719744D01*
X76262244Y-54672244D01*
X76247458Y-54694372D01*
X76200229Y-54725396D01*
X76114640Y-54667623D01*
X75865000Y-54617560D01*
X75265000Y-54617560D01*
X75022877Y-54664537D01*
X74930229Y-54725396D01*
X74844640Y-54667623D01*
X74595000Y-54617560D01*
X73995000Y-54617560D01*
X73752877Y-54664537D01*
X73660229Y-54725396D01*
X73574640Y-54667623D01*
X73325000Y-54617560D01*
X72725000Y-54617560D01*
X72482877Y-54664537D01*
X72270073Y-54804327D01*
X72127623Y-55015360D01*
X72077560Y-55265000D01*
X72077560Y-56815000D01*
X72124537Y-57057123D01*
X72264327Y-57269927D01*
X72475360Y-57412377D01*
X72725000Y-57462440D01*
X73325000Y-57462440D01*
X73485000Y-57431396D01*
X73485000Y-58338487D01*
X72653927Y-59169560D01*
X71374000Y-59169560D01*
X71131877Y-59216537D01*
X70919073Y-59356327D01*
X70776623Y-59567360D01*
X70726560Y-59817000D01*
X70726560Y-61341000D01*
X70773537Y-61583123D01*
X70913327Y-61795927D01*
X71124360Y-61938377D01*
X71374000Y-61988440D01*
X73406000Y-61988440D01*
X73648123Y-61941463D01*
X73860927Y-61801673D01*
X74003377Y-61590640D01*
X74053440Y-61341000D01*
X74053440Y-60061072D01*
X74867756Y-59246756D01*
X74867757Y-59246756D01*
X74930000Y-59153602D01*
X74992244Y-59246756D01*
X75806560Y-60061072D01*
X75806560Y-61341000D01*
X75853537Y-61583123D01*
X75993327Y-61795927D01*
X76204360Y-61938377D01*
X76454000Y-61988440D01*
X78486000Y-61988440D01*
X78728123Y-61941463D01*
X78940927Y-61801673D01*
X79083377Y-61590640D01*
X79133440Y-61341000D01*
X79133440Y-59817000D01*
X79086463Y-59574877D01*
X78946673Y-59362073D01*
X78735640Y-59219623D01*
X78486000Y-59169560D01*
X77206072Y-59169560D01*
X76375000Y-58338487D01*
X76375000Y-57430353D01*
X76535000Y-57462440D01*
X77135000Y-57462440D01*
X77377123Y-57415463D01*
X77589927Y-57275673D01*
X77732377Y-57064640D01*
X77782440Y-56815000D01*
X77782440Y-55443072D01*
X78123012Y-55102500D01*
X78792082Y-55102500D01*
X78850827Y-55191927D01*
X79061860Y-55334377D01*
X79311500Y-55384440D01*
X80708500Y-55384440D01*
X80950623Y-55337463D01*
X81163427Y-55197673D01*
X81305877Y-54986640D01*
X81355940Y-54737000D01*
X81355940Y-66223140D01*
X80379570Y-66223140D01*
X80137447Y-66270117D01*
X79924643Y-66409907D01*
X79782193Y-66620940D01*
X79732130Y-66870580D01*
X79732130Y-67731640D01*
X77434400Y-67731640D01*
X77390673Y-67665073D01*
X77318360Y-67616260D01*
X77318360Y-65290440D01*
X78486000Y-65290440D01*
X78728123Y-65243463D01*
X78940927Y-65103673D01*
X79083377Y-64892640D01*
X79133440Y-64643000D01*
X79133440Y-63119000D01*
X79086463Y-62876877D01*
X78946673Y-62664073D01*
X78735640Y-62521623D01*
X78486000Y-62471560D01*
X76454000Y-62471560D01*
X76211877Y-62518537D01*
X75999073Y-62658327D01*
X75856623Y-62869360D01*
X75806560Y-63119000D01*
X75806560Y-63906204D01*
X75800742Y-63912022D01*
X75608031Y-64200434D01*
X75540360Y-64540640D01*
X75540360Y-67472560D01*
X75230000Y-67472560D01*
X74987877Y-67519537D01*
X74930705Y-67557092D01*
X74879640Y-67522623D01*
X74630000Y-67472560D01*
X74319640Y-67472560D01*
X74319640Y-64540640D01*
X74251969Y-64200435D01*
X74251969Y-64200434D01*
X74059258Y-63912022D01*
X74053440Y-63906204D01*
X74053440Y-63119000D01*
X74006463Y-62876877D01*
X73866673Y-62664073D01*
X73655640Y-62521623D01*
X73406000Y-62471560D01*
X71374000Y-62471560D01*
X71131877Y-62518537D01*
X70919073Y-62658327D01*
X70776623Y-62869360D01*
X70726560Y-63119000D01*
X70726560Y-64643000D01*
X70773537Y-64885123D01*
X70913327Y-65097927D01*
X71124360Y-65240377D01*
X71374000Y-65290440D01*
X72541640Y-65290440D01*
X72541640Y-67615599D01*
X72475073Y-67659327D01*
X72426260Y-67731640D01*
X70127870Y-67731640D01*
X70127870Y-66870580D01*
X70080893Y-66628457D01*
X69941103Y-66415653D01*
X69730070Y-66273203D01*
X69480430Y-66223140D01*
X67679570Y-66223140D01*
X67437447Y-66270117D01*
X67224643Y-66409907D01*
X67082193Y-66620940D01*
X67032130Y-66870580D01*
X67032130Y-70370700D01*
X67079107Y-70612823D01*
X67218897Y-70825627D01*
X67429930Y-70968077D01*
X67679570Y-71018140D01*
X69480430Y-71018140D01*
X69722553Y-70971163D01*
X69935357Y-70831373D01*
X70077807Y-70620340D01*
X70127870Y-70370700D01*
X70127870Y-69509640D01*
X72282560Y-69509640D01*
X72282560Y-70020000D01*
X72329537Y-70262123D01*
X72469327Y-70474927D01*
X72680360Y-70617377D01*
X72930000Y-70667440D01*
X74630000Y-70667440D01*
X74872123Y-70620463D01*
X74929294Y-70582907D01*
X74980360Y-70617377D01*
X75230000Y-70667440D01*
X76930000Y-70667440D01*
X77172123Y-70620463D01*
X77384927Y-70480673D01*
X77527377Y-70269640D01*
X77577440Y-70020000D01*
X77577440Y-69509640D01*
X79732130Y-69509640D01*
X79732130Y-70370700D01*
X79779107Y-70612823D01*
X79918897Y-70825627D01*
X80129930Y-70968077D01*
X80379570Y-71018140D01*
X82180430Y-71018140D01*
X82422553Y-70971163D01*
X82635357Y-70831373D01*
X82777807Y-70620340D01*
X82827870Y-70370700D01*
X82827870Y-80759560D01*
X82815430Y-80759560D01*
X82815430Y-75495729D01*
X82815430Y-73905110D01*
X82815430Y-73333610D01*
X82815430Y-71742991D01*
X82718757Y-71509602D01*
X82540129Y-71330973D01*
X82306740Y-71234300D01*
X82054121Y-71234300D01*
X81565750Y-71234300D01*
X81407000Y-71393050D01*
X81407000Y-73492360D01*
X82656680Y-73492360D01*
X82815430Y-73333610D01*
X82815430Y-73905110D01*
X82656680Y-73746360D01*
X81407000Y-73746360D01*
X81407000Y-75845670D01*
X81565750Y-76004420D01*
X82054121Y-76004420D01*
X82306740Y-76004420D01*
X82540129Y-75907747D01*
X82718757Y-75729118D01*
X82815430Y-75495729D01*
X82815430Y-80759560D01*
X81534000Y-80759560D01*
X81291877Y-80806537D01*
X81153000Y-80897764D01*
X81153000Y-75845670D01*
X81153000Y-73746360D01*
X81153000Y-73492360D01*
X81153000Y-71393050D01*
X80994250Y-71234300D01*
X80505879Y-71234300D01*
X80253260Y-71234300D01*
X80019871Y-71330973D01*
X79841243Y-71509602D01*
X79744570Y-71742991D01*
X79744570Y-73333610D01*
X79903320Y-73492360D01*
X81153000Y-73492360D01*
X81153000Y-73746360D01*
X79903320Y-73746360D01*
X79744570Y-73905110D01*
X79744570Y-75495729D01*
X79841243Y-75729118D01*
X80019871Y-75907747D01*
X80253260Y-76004420D01*
X80505879Y-76004420D01*
X80994250Y-76004420D01*
X81153000Y-75845670D01*
X81153000Y-80897764D01*
X81079073Y-80946327D01*
X80936623Y-81157360D01*
X80912028Y-81280000D01*
X79121000Y-81280000D01*
X78780794Y-81347671D01*
X78492382Y-81540382D01*
X78028694Y-82004069D01*
X77470000Y-81892939D01*
X76819000Y-82022430D01*
X76819000Y-74767440D01*
X76930000Y-74767440D01*
X77172123Y-74720463D01*
X77384927Y-74580673D01*
X77527377Y-74369640D01*
X77577440Y-74120000D01*
X77577440Y-72220000D01*
X77530463Y-71977877D01*
X77390673Y-71765073D01*
X77179640Y-71622623D01*
X76930000Y-71572560D01*
X75230000Y-71572560D01*
X74987877Y-71619537D01*
X74930705Y-71657092D01*
X74879640Y-71622623D01*
X74630000Y-71572560D01*
X72930000Y-71572560D01*
X72687877Y-71619537D01*
X72475073Y-71759327D01*
X72332623Y-71970360D01*
X72282560Y-72220000D01*
X72282560Y-74120000D01*
X72329537Y-74362123D01*
X72469327Y-74574927D01*
X72680360Y-74717377D01*
X72930000Y-74767440D01*
X73041000Y-74767440D01*
X73041000Y-82022430D01*
X72390000Y-81892939D01*
X71831305Y-82004069D01*
X71748618Y-81921382D01*
X71460206Y-81728671D01*
X71120000Y-81661000D01*
X70115430Y-81661000D01*
X70115430Y-75495729D01*
X70115430Y-73905110D01*
X70115430Y-73333610D01*
X70115430Y-71742991D01*
X70018757Y-71509602D01*
X69840129Y-71330973D01*
X69606740Y-71234300D01*
X69354121Y-71234300D01*
X68865750Y-71234300D01*
X68707000Y-71393050D01*
X68707000Y-73492360D01*
X69956680Y-73492360D01*
X70115430Y-73333610D01*
X70115430Y-73905110D01*
X69956680Y-73746360D01*
X68707000Y-73746360D01*
X68707000Y-75845670D01*
X68865750Y-76004420D01*
X69354121Y-76004420D01*
X69606740Y-76004420D01*
X69840129Y-75907747D01*
X70018757Y-75729118D01*
X70115430Y-75495729D01*
X70115430Y-81661000D01*
X68973440Y-81661000D01*
X68973440Y-81534000D01*
X68926463Y-81291877D01*
X68786673Y-81079073D01*
X68575640Y-80936623D01*
X68453000Y-80912028D01*
X68453000Y-75845670D01*
X68453000Y-73746360D01*
X68453000Y-73492360D01*
X68453000Y-71393050D01*
X68294250Y-71234300D01*
X67805879Y-71234300D01*
X67553260Y-71234300D01*
X67319871Y-71330973D01*
X67141243Y-71509602D01*
X67044570Y-71742991D01*
X67044570Y-73333610D01*
X67203320Y-73492360D01*
X68453000Y-73492360D01*
X68453000Y-73746360D01*
X67203320Y-73746360D01*
X67044570Y-73905110D01*
X67044570Y-75495729D01*
X67141243Y-75729118D01*
X67319871Y-75907747D01*
X67553260Y-76004420D01*
X67805879Y-76004420D01*
X68294250Y-76004420D01*
X68453000Y-75845670D01*
X68453000Y-80912028D01*
X68326000Y-80886560D01*
X66294000Y-80886560D01*
X66051877Y-80933537D01*
X65839073Y-81073327D01*
X65696623Y-81284360D01*
X65646560Y-81534000D01*
X65646560Y-83566000D01*
X65693537Y-83808123D01*
X65833327Y-84020927D01*
X65986256Y-84124156D01*
X65784675Y-84425845D01*
X65659000Y-85057655D01*
X65659000Y-85122345D01*
X65784675Y-85754155D01*
X66142567Y-86289778D01*
X66678190Y-86647670D01*
X67310000Y-86773345D01*
X67758600Y-86684112D01*
X69912243Y-88837756D01*
X69912244Y-88837756D01*
X70043635Y-88925549D01*
X70175026Y-89013342D01*
X70175027Y-89013342D01*
X70485000Y-89075000D01*
X72390000Y-89075000D01*
X79375000Y-89075000D01*
X79375000Y-89074999D01*
X79684973Y-89013342D01*
X79684974Y-89013342D01*
X79947756Y-88837756D01*
X81905072Y-86880440D01*
X83566000Y-86880440D01*
X83808123Y-86833463D01*
X84020927Y-86693673D01*
X84163377Y-86482640D01*
X84213440Y-86233000D01*
X84213440Y-89435000D01*
X63595707Y-89435000D01*
X63595707Y-83298116D01*
X63195359Y-82329201D01*
X62454698Y-81587246D01*
X61486483Y-81185208D01*
X60438116Y-81184293D01*
X59469201Y-81584641D01*
X58727246Y-82325302D01*
X58325208Y-83293517D01*
X58324293Y-84341884D01*
X58724641Y-85310799D01*
X59465302Y-86052754D01*
X60433517Y-86454792D01*
X61481884Y-86455707D01*
X62450799Y-86055359D01*
X63192754Y-85314698D01*
X63594792Y-84346483D01*
X63595707Y-83298116D01*
X63595707Y-89435000D01*
X55345000Y-89435000D01*
X55345000Y-41375000D01*
X104675000Y-41375000D01*
X104675000Y-89435000D01*
X104675000Y-89435000D01*
G37*
X104675000Y-89435000D02*
X104368600Y-89435000D01*
X104368600Y-66069359D01*
X104368600Y-66010641D01*
X104254526Y-65437152D01*
X103929670Y-64950971D01*
X103658827Y-64770000D01*
X103929670Y-64589029D01*
X104254526Y-64102848D01*
X104368600Y-63529359D01*
X104368600Y-63470641D01*
X104254526Y-62897152D01*
X103929670Y-62410971D01*
X103658827Y-62230000D01*
X103929670Y-62049029D01*
X104254526Y-61562848D01*
X104368600Y-60989359D01*
X104368600Y-60930641D01*
X104254526Y-60357152D01*
X103929670Y-59870971D01*
X103658827Y-59690000D01*
X103929670Y-59509029D01*
X104254526Y-59022848D01*
X104368600Y-58449359D01*
X104368600Y-58390641D01*
X104254526Y-57817152D01*
X103929670Y-57330971D01*
X103658827Y-57150000D01*
X103929670Y-56969029D01*
X104254526Y-56482848D01*
X104368600Y-55909359D01*
X104368600Y-55850641D01*
X104254526Y-55277152D01*
X103929670Y-54790971D01*
X103658827Y-54610000D01*
X103929670Y-54429029D01*
X104254526Y-53942848D01*
X104368600Y-53369359D01*
X104368600Y-53310641D01*
X104254526Y-52737152D01*
X103929670Y-52250971D01*
X103658827Y-52070000D01*
X103929670Y-51889029D01*
X104254526Y-51402848D01*
X104368600Y-50829359D01*
X104368600Y-50770641D01*
X104254526Y-50197152D01*
X103929670Y-49710971D01*
X103658827Y-49530000D01*
X103929670Y-49349029D01*
X104254526Y-48862848D01*
X104368600Y-48289359D01*
X104368600Y-48230641D01*
X104254526Y-47657152D01*
X103929670Y-47170971D01*
X103658827Y-46990000D01*
X103929670Y-46809029D01*
X104254526Y-46322848D01*
X104368600Y-45749359D01*
X104368600Y-45690641D01*
X104254526Y-45117152D01*
X103929670Y-44630971D01*
X103658839Y-44450007D01*
X104076821Y-44068490D01*
X104324968Y-43539027D01*
X104324968Y-42820973D01*
X104076821Y-42291510D01*
X103644947Y-41897312D01*
X103229026Y-41725042D01*
X102997000Y-41846183D01*
X102997000Y-43053000D01*
X104204469Y-43053000D01*
X104324968Y-42820973D01*
X104324968Y-43539027D01*
X104204469Y-43307000D01*
X102997000Y-43307000D01*
X102997000Y-43327000D01*
X102743000Y-43327000D01*
X102743000Y-43307000D01*
X102723000Y-43307000D01*
X102723000Y-43053000D01*
X102743000Y-43053000D01*
X102743000Y-41846183D01*
X102510974Y-41725042D01*
X102095053Y-41897312D01*
X101810178Y-42157334D01*
X101794063Y-42074277D01*
X101654273Y-41861473D01*
X101443240Y-41719023D01*
X101193600Y-41668960D01*
X99466400Y-41668960D01*
X99224277Y-41715937D01*
X99011473Y-41855727D01*
X98869023Y-42066760D01*
X98818960Y-42316400D01*
X98818960Y-44043600D01*
X98865937Y-44285723D01*
X99005727Y-44498527D01*
X99216760Y-44640977D01*
X99258104Y-44649268D01*
X98945474Y-45117152D01*
X98831400Y-45690641D01*
X98831400Y-45749359D01*
X98945474Y-46322848D01*
X99270330Y-46809029D01*
X99541172Y-46990000D01*
X99270330Y-47170971D01*
X98945474Y-47657152D01*
X98831400Y-48230641D01*
X98831400Y-48289359D01*
X98945474Y-48862848D01*
X99270330Y-49349029D01*
X99541172Y-49530000D01*
X99270330Y-49710971D01*
X98945474Y-50197152D01*
X98831400Y-50770641D01*
X98831400Y-50829359D01*
X98945474Y-51402848D01*
X99270330Y-51889029D01*
X99541172Y-52070000D01*
X99270330Y-52250971D01*
X98945474Y-52737152D01*
X98831400Y-53310641D01*
X98831400Y-53369359D01*
X98945474Y-53942848D01*
X99270330Y-54429029D01*
X99541172Y-54610000D01*
X99270330Y-54790971D01*
X98945474Y-55277152D01*
X98831400Y-55850641D01*
X98831400Y-55909359D01*
X98945474Y-56482848D01*
X99270330Y-56969029D01*
X99541172Y-57150000D01*
X99270330Y-57330971D01*
X98945474Y-57817152D01*
X98831400Y-58390641D01*
X98831400Y-58449359D01*
X98945474Y-59022848D01*
X99270330Y-59509029D01*
X99541172Y-59690000D01*
X99270330Y-59870971D01*
X99083888Y-60150000D01*
X99060000Y-60150000D01*
X98750026Y-60211658D01*
X98618635Y-60299451D01*
X98487243Y-60387244D01*
X90867244Y-68007244D01*
X90691658Y-68270026D01*
X90630000Y-68580000D01*
X90630000Y-74295000D01*
X90630000Y-76499487D01*
X90433927Y-76695560D01*
X89471500Y-76695560D01*
X89229377Y-76742537D01*
X89016573Y-76882327D01*
X88874123Y-77093360D01*
X88824060Y-77343000D01*
X88824060Y-78232000D01*
X88871037Y-78474123D01*
X89010827Y-78686927D01*
X89089041Y-78739722D01*
X89016573Y-78787327D01*
X88874123Y-78998360D01*
X88824060Y-79248000D01*
X88824060Y-80137000D01*
X88871037Y-80379123D01*
X89010827Y-80591927D01*
X89221860Y-80734377D01*
X89360000Y-80762079D01*
X89360000Y-82834953D01*
X89328437Y-82841077D01*
X89115633Y-82980867D01*
X88973183Y-83191900D01*
X88923120Y-83441540D01*
X88923120Y-84640420D01*
X88970097Y-84882543D01*
X89109887Y-85095347D01*
X89113994Y-85098119D01*
X89032233Y-85179882D01*
X88935560Y-85413271D01*
X88935560Y-85853270D01*
X89094310Y-86012020D01*
X90043000Y-86012020D01*
X90043000Y-85992020D01*
X90297000Y-85992020D01*
X90297000Y-86012020D01*
X91245690Y-86012020D01*
X91404440Y-85853270D01*
X91404440Y-85413271D01*
X91307767Y-85179882D01*
X91226225Y-85098339D01*
X91366817Y-84890060D01*
X91416880Y-84640420D01*
X91416880Y-83441540D01*
X91369903Y-83199417D01*
X91230113Y-82986613D01*
X91019080Y-82844163D01*
X90980000Y-82836325D01*
X90980000Y-80762806D01*
X91110623Y-80737463D01*
X91323427Y-80597673D01*
X91440586Y-80424106D01*
X91550827Y-80591927D01*
X91761860Y-80734377D01*
X91900000Y-80762079D01*
X91900000Y-82834953D01*
X91868437Y-82841077D01*
X91655633Y-82980867D01*
X91513183Y-83191900D01*
X91463120Y-83441540D01*
X91463120Y-84640420D01*
X91510097Y-84882543D01*
X91649887Y-85095347D01*
X91653994Y-85098119D01*
X91572233Y-85179882D01*
X91475560Y-85413271D01*
X91475560Y-85853270D01*
X91634310Y-86012020D01*
X92583000Y-86012020D01*
X92583000Y-85992020D01*
X92837000Y-85992020D01*
X92837000Y-86012020D01*
X93785690Y-86012020D01*
X93944440Y-85853270D01*
X93944440Y-85413271D01*
X93847767Y-85179882D01*
X93766225Y-85098339D01*
X93906817Y-84890060D01*
X93956880Y-84640420D01*
X93956880Y-83441540D01*
X93909903Y-83199417D01*
X93770113Y-82986613D01*
X93559080Y-82844163D01*
X93520000Y-82836325D01*
X93520000Y-80762806D01*
X93650623Y-80737463D01*
X93863427Y-80597673D01*
X94005877Y-80386640D01*
X94055940Y-80137000D01*
X94055940Y-79248000D01*
X94008963Y-79005877D01*
X93869173Y-78793073D01*
X93790958Y-78740277D01*
X93863427Y-78692673D01*
X94005877Y-78481640D01*
X94055940Y-78232000D01*
X94055940Y-77343000D01*
X94008963Y-77100877D01*
X93869173Y-76888073D01*
X93658140Y-76745623D01*
X93520000Y-76717920D01*
X93520000Y-74295000D01*
X93520000Y-69550512D01*
X98760512Y-64310000D01*
X99083888Y-64310000D01*
X99270330Y-64589029D01*
X99541172Y-64770000D01*
X99270330Y-64950971D01*
X98945474Y-65437152D01*
X98831400Y-66010641D01*
X98831400Y-66069359D01*
X98945474Y-66642848D01*
X99270330Y-67129029D01*
X99756511Y-67453885D01*
X100330000Y-67567959D01*
X100903489Y-67453885D01*
X101389670Y-67129029D01*
X101600000Y-66814248D01*
X101810330Y-67129029D01*
X102296511Y-67453885D01*
X102870000Y-67567959D01*
X103443489Y-67453885D01*
X103929670Y-67129029D01*
X104254526Y-66642848D01*
X104368600Y-66069359D01*
X104368600Y-89435000D01*
X101695707Y-89435000D01*
X101695707Y-83298116D01*
X101295359Y-82329201D01*
X100554698Y-81587246D01*
X99586483Y-81185208D01*
X98538116Y-81184293D01*
X97569201Y-81584641D01*
X96827246Y-82325302D01*
X96425208Y-83293517D01*
X96424293Y-84341884D01*
X96824641Y-85310799D01*
X97565302Y-86052754D01*
X98533517Y-86454792D01*
X99581884Y-86455707D01*
X100550799Y-86055359D01*
X101292754Y-85314698D01*
X101694792Y-84346483D01*
X101695707Y-83298116D01*
X101695707Y-89435000D01*
X93944440Y-89435000D01*
X93944440Y-86864769D01*
X93944440Y-86424770D01*
X93785690Y-86266020D01*
X92837000Y-86266020D01*
X92837000Y-87214710D01*
X92995750Y-87373460D01*
X93183131Y-87373460D01*
X93435750Y-87373460D01*
X93669139Y-87276787D01*
X93847767Y-87098158D01*
X93944440Y-86864769D01*
X93944440Y-89435000D01*
X92583000Y-89435000D01*
X92583000Y-87214710D01*
X92583000Y-86266020D01*
X91634310Y-86266020D01*
X91475560Y-86424770D01*
X91475560Y-86864769D01*
X91572233Y-87098158D01*
X91750861Y-87276787D01*
X91984250Y-87373460D01*
X92236869Y-87373460D01*
X92424250Y-87373460D01*
X92583000Y-87214710D01*
X92583000Y-89435000D01*
X91404440Y-89435000D01*
X91404440Y-86864769D01*
X91404440Y-86424770D01*
X91245690Y-86266020D01*
X90297000Y-86266020D01*
X90297000Y-87214710D01*
X90455750Y-87373460D01*
X90643131Y-87373460D01*
X90895750Y-87373460D01*
X91129139Y-87276787D01*
X91307767Y-87098158D01*
X91404440Y-86864769D01*
X91404440Y-89435000D01*
X90043000Y-89435000D01*
X90043000Y-87214710D01*
X90043000Y-86266020D01*
X89094310Y-86266020D01*
X88935560Y-86424770D01*
X88935560Y-86864769D01*
X89032233Y-87098158D01*
X89210861Y-87276787D01*
X89444250Y-87373460D01*
X89696869Y-87373460D01*
X89884250Y-87373460D01*
X90043000Y-87214710D01*
X90043000Y-89435000D01*
X84213440Y-89435000D01*
X84213440Y-86233000D01*
X84213440Y-84709000D01*
X84166463Y-84466877D01*
X84026673Y-84254073D01*
X83815640Y-84111623D01*
X83566000Y-84061560D01*
X81534000Y-84061560D01*
X81291877Y-84108537D01*
X81079073Y-84248327D01*
X80936623Y-84459360D01*
X80886560Y-84709000D01*
X80886560Y-85607927D01*
X79275319Y-87219168D01*
X79442363Y-86969170D01*
X79604870Y-86152191D01*
X79604870Y-84027809D01*
X79442363Y-83210830D01*
X79399922Y-83147313D01*
X79489236Y-83058000D01*
X80911200Y-83058000D01*
X80933537Y-83173123D01*
X81073327Y-83385927D01*
X81284360Y-83528377D01*
X81534000Y-83578440D01*
X83566000Y-83578440D01*
X83808123Y-83531463D01*
X84020927Y-83391673D01*
X84163377Y-83180640D01*
X84213440Y-82931000D01*
X84213440Y-81407000D01*
X84166463Y-81164877D01*
X84026673Y-80952073D01*
X83815640Y-80809623D01*
X83566000Y-80759560D01*
X82827870Y-80759560D01*
X82827870Y-70370700D01*
X82827870Y-66870580D01*
X82780893Y-66628457D01*
X82641103Y-66415653D01*
X82430070Y-66273203D01*
X82180430Y-66223140D01*
X81355940Y-66223140D01*
X81355940Y-54737000D01*
X81355940Y-53848000D01*
X81308963Y-53605877D01*
X81169173Y-53393073D01*
X81095310Y-53343215D01*
X81246827Y-53191698D01*
X81343500Y-52958309D01*
X81343500Y-52673250D01*
X81343500Y-52101750D01*
X81343500Y-51816691D01*
X81246827Y-51583302D01*
X81068199Y-51404673D01*
X80834810Y-51308000D01*
X80582191Y-51308000D01*
X80295750Y-51308000D01*
X80137000Y-51466750D01*
X80137000Y-52260500D01*
X81184750Y-52260500D01*
X81343500Y-52101750D01*
X81343500Y-52673250D01*
X81184750Y-52514500D01*
X80137000Y-52514500D01*
X80137000Y-52534500D01*
X79883000Y-52534500D01*
X79883000Y-52514500D01*
X79883000Y-52260500D01*
X79883000Y-51466750D01*
X79724250Y-51308000D01*
X79437809Y-51308000D01*
X79185190Y-51308000D01*
X78951801Y-51404673D01*
X78773173Y-51583302D01*
X78676500Y-51816691D01*
X78676500Y-52101750D01*
X78835250Y-52260500D01*
X79883000Y-52260500D01*
X79883000Y-52514500D01*
X78835250Y-52514500D01*
X78676500Y-52673250D01*
X78676500Y-52958309D01*
X78773173Y-53191698D01*
X78924306Y-53342832D01*
X78856573Y-53387327D01*
X78792329Y-53482500D01*
X77787500Y-53482500D01*
X77782440Y-53483506D01*
X77782440Y-51415000D01*
X77782440Y-49865000D01*
X77735463Y-49622877D01*
X77595673Y-49410073D01*
X77384640Y-49267623D01*
X77135000Y-49217560D01*
X76962000Y-49217560D01*
X76962000Y-47814810D01*
X76962000Y-47562191D01*
X76962000Y-47275750D01*
X76962000Y-46704250D01*
X76962000Y-46417809D01*
X76962000Y-46165190D01*
X76865327Y-45931801D01*
X76686698Y-45753173D01*
X76453309Y-45656500D01*
X76168250Y-45656500D01*
X76009500Y-45815250D01*
X76009500Y-46863000D01*
X76803250Y-46863000D01*
X76962000Y-46704250D01*
X76962000Y-47275750D01*
X76803250Y-47117000D01*
X76009500Y-47117000D01*
X76009500Y-48164750D01*
X76168250Y-48323500D01*
X76453309Y-48323500D01*
X76686698Y-48226827D01*
X76865327Y-48048199D01*
X76962000Y-47814810D01*
X76962000Y-49217560D01*
X76535000Y-49217560D01*
X76292877Y-49264537D01*
X76208500Y-49319963D01*
X75991310Y-49230000D01*
X75850750Y-49230000D01*
X75692000Y-49388750D01*
X75692000Y-50513000D01*
X75712000Y-50513000D01*
X75712000Y-50767000D01*
X75692000Y-50767000D01*
X75692000Y-50787000D01*
X75438000Y-50787000D01*
X75438000Y-50767000D01*
X75418000Y-50767000D01*
X75418000Y-50513000D01*
X75438000Y-50513000D01*
X75438000Y-49388750D01*
X75279250Y-49230000D01*
X75230000Y-49230000D01*
X75230000Y-48289662D01*
X75311691Y-48323500D01*
X75596750Y-48323500D01*
X75755500Y-48164750D01*
X75755500Y-47117000D01*
X75735500Y-47117000D01*
X75735500Y-46863000D01*
X75755500Y-46863000D01*
X75755500Y-45815250D01*
X75596750Y-45656500D01*
X75311691Y-45656500D01*
X75078302Y-45753173D01*
X74927167Y-45904306D01*
X74882673Y-45836573D01*
X74671640Y-45694123D01*
X74422000Y-45644060D01*
X74068400Y-45644060D01*
X70885920Y-42461580D01*
X70556307Y-42241338D01*
X70491799Y-42228507D01*
X70167500Y-42164000D01*
X60798466Y-42164000D01*
X60749670Y-42090971D01*
X60263489Y-41766115D01*
X59690000Y-41652041D01*
X59116511Y-41766115D01*
X58630330Y-42090971D01*
X58620233Y-42106081D01*
X58614063Y-42074277D01*
X58474273Y-41861473D01*
X58263240Y-41719023D01*
X58013600Y-41668960D01*
X56286400Y-41668960D01*
X56044277Y-41715937D01*
X55831473Y-41855727D01*
X55689023Y-42066760D01*
X55638960Y-42316400D01*
X55638960Y-44043600D01*
X55685937Y-44285723D01*
X55825727Y-44498527D01*
X56036760Y-44640977D01*
X56078104Y-44649268D01*
X55765474Y-45117152D01*
X55651400Y-45690641D01*
X55651400Y-45749359D01*
X55765474Y-46322848D01*
X56090330Y-46809029D01*
X56361172Y-46990000D01*
X56090330Y-47170971D01*
X55765474Y-47657152D01*
X55651400Y-48230641D01*
X55651400Y-48289359D01*
X55765474Y-48862848D01*
X56090330Y-49349029D01*
X56361172Y-49530000D01*
X56090330Y-49710971D01*
X55765474Y-50197152D01*
X55651400Y-50770641D01*
X55651400Y-50829359D01*
X55765474Y-51402848D01*
X56090330Y-51889029D01*
X56361172Y-52070000D01*
X56090330Y-52250971D01*
X55765474Y-52737152D01*
X55651400Y-53310641D01*
X55651400Y-53369359D01*
X55765474Y-53942848D01*
X56090330Y-54429029D01*
X56361172Y-54610000D01*
X56090330Y-54790971D01*
X55765474Y-55277152D01*
X55651400Y-55850641D01*
X55651400Y-55909359D01*
X55765474Y-56482848D01*
X56090330Y-56969029D01*
X56361172Y-57150000D01*
X56090330Y-57330971D01*
X55765474Y-57817152D01*
X55651400Y-58390641D01*
X55651400Y-58449359D01*
X55765474Y-59022848D01*
X56090330Y-59509029D01*
X56361172Y-59690000D01*
X56090330Y-59870971D01*
X55765474Y-60357152D01*
X55651400Y-60930641D01*
X55651400Y-60989359D01*
X55765474Y-61562848D01*
X56090330Y-62049029D01*
X56361172Y-62230000D01*
X56090330Y-62410971D01*
X55765474Y-62897152D01*
X55651400Y-63470641D01*
X55651400Y-63529359D01*
X55765474Y-64102848D01*
X56090330Y-64589029D01*
X56361172Y-64770000D01*
X56090330Y-64950971D01*
X55765474Y-65437152D01*
X55651400Y-66010641D01*
X55651400Y-66069359D01*
X55765474Y-66642848D01*
X56090330Y-67129029D01*
X56576511Y-67453885D01*
X57150000Y-67567959D01*
X57723489Y-67453885D01*
X58209670Y-67129029D01*
X58420000Y-66814248D01*
X58630330Y-67129029D01*
X59116511Y-67453885D01*
X59690000Y-67567959D01*
X60263489Y-67453885D01*
X60749670Y-67129029D01*
X61074526Y-66642848D01*
X61188600Y-66069359D01*
X61188600Y-66010641D01*
X61074526Y-65437152D01*
X60749670Y-64950971D01*
X60478827Y-64770000D01*
X60749670Y-64589029D01*
X61074526Y-64102848D01*
X61188600Y-63529359D01*
X61188600Y-63470641D01*
X61074526Y-62897152D01*
X60749670Y-62410971D01*
X60478827Y-62230000D01*
X60749670Y-62049029D01*
X61074526Y-61562848D01*
X61188600Y-60989359D01*
X61188600Y-60930641D01*
X61074526Y-60357152D01*
X60749670Y-59870971D01*
X60478827Y-59690000D01*
X60749670Y-59509029D01*
X61074526Y-59022848D01*
X61188600Y-58449359D01*
X61188600Y-58390641D01*
X61074526Y-57817152D01*
X60749670Y-57330971D01*
X60478827Y-57150000D01*
X60749670Y-56969029D01*
X61074526Y-56482848D01*
X61188600Y-55909359D01*
X61188600Y-55850641D01*
X61102940Y-55420000D01*
X66557193Y-55420000D01*
X66582537Y-55550623D01*
X66722327Y-55763427D01*
X66933360Y-55905877D01*
X67183000Y-55955940D01*
X68072000Y-55955940D01*
X68314123Y-55908963D01*
X68526927Y-55769173D01*
X68579722Y-55690958D01*
X68627327Y-55763427D01*
X68838360Y-55905877D01*
X69088000Y-55955940D01*
X69977000Y-55955940D01*
X70219123Y-55908963D01*
X70431927Y-55769173D01*
X70574377Y-55558140D01*
X70624440Y-55308500D01*
X70624440Y-54785000D01*
X71120000Y-54785000D01*
X71120000Y-54784999D01*
X71429973Y-54723342D01*
X71429974Y-54723342D01*
X71692756Y-54547756D01*
X72725512Y-53515000D01*
X76200000Y-53515000D01*
X76200000Y-53514999D01*
X76509973Y-53453342D01*
X76509974Y-53453342D01*
X76772756Y-53277756D01*
X77407756Y-52642756D01*
X77407757Y-52642756D01*
X77583342Y-52379974D01*
X77583343Y-52379973D01*
X77645000Y-52070000D01*
X77645000Y-51794084D01*
X77732377Y-51664640D01*
X77782440Y-51415000D01*
X77782440Y-53483506D01*
X77477526Y-53544158D01*
X77346135Y-53631951D01*
X77214743Y-53719744D01*
X76262244Y-54672244D01*
X76247458Y-54694372D01*
X76200229Y-54725396D01*
X76114640Y-54667623D01*
X75865000Y-54617560D01*
X75265000Y-54617560D01*
X75022877Y-54664537D01*
X74930229Y-54725396D01*
X74844640Y-54667623D01*
X74595000Y-54617560D01*
X73995000Y-54617560D01*
X73752877Y-54664537D01*
X73660229Y-54725396D01*
X73574640Y-54667623D01*
X73325000Y-54617560D01*
X72725000Y-54617560D01*
X72482877Y-54664537D01*
X72270073Y-54804327D01*
X72127623Y-55015360D01*
X72077560Y-55265000D01*
X72077560Y-56815000D01*
X72124537Y-57057123D01*
X72264327Y-57269927D01*
X72475360Y-57412377D01*
X72725000Y-57462440D01*
X73325000Y-57462440D01*
X73485000Y-57431396D01*
X73485000Y-58338487D01*
X72653927Y-59169560D01*
X71374000Y-59169560D01*
X71131877Y-59216537D01*
X70919073Y-59356327D01*
X70776623Y-59567360D01*
X70726560Y-59817000D01*
X70726560Y-61341000D01*
X70773537Y-61583123D01*
X70913327Y-61795927D01*
X71124360Y-61938377D01*
X71374000Y-61988440D01*
X73406000Y-61988440D01*
X73648123Y-61941463D01*
X73860927Y-61801673D01*
X74003377Y-61590640D01*
X74053440Y-61341000D01*
X74053440Y-60061072D01*
X74867756Y-59246756D01*
X74867757Y-59246756D01*
X74930000Y-59153602D01*
X74992244Y-59246756D01*
X75806560Y-60061072D01*
X75806560Y-61341000D01*
X75853537Y-61583123D01*
X75993327Y-61795927D01*
X76204360Y-61938377D01*
X76454000Y-61988440D01*
X78486000Y-61988440D01*
X78728123Y-61941463D01*
X78940927Y-61801673D01*
X79083377Y-61590640D01*
X79133440Y-61341000D01*
X79133440Y-59817000D01*
X79086463Y-59574877D01*
X78946673Y-59362073D01*
X78735640Y-59219623D01*
X78486000Y-59169560D01*
X77206072Y-59169560D01*
X76375000Y-58338487D01*
X76375000Y-57430353D01*
X76535000Y-57462440D01*
X77135000Y-57462440D01*
X77377123Y-57415463D01*
X77589927Y-57275673D01*
X77732377Y-57064640D01*
X77782440Y-56815000D01*
X77782440Y-55443072D01*
X78123012Y-55102500D01*
X78792082Y-55102500D01*
X78850827Y-55191927D01*
X79061860Y-55334377D01*
X79311500Y-55384440D01*
X80708500Y-55384440D01*
X80950623Y-55337463D01*
X81163427Y-55197673D01*
X81305877Y-54986640D01*
X81355940Y-54737000D01*
X81355940Y-66223140D01*
X80379570Y-66223140D01*
X80137447Y-66270117D01*
X79924643Y-66409907D01*
X79782193Y-66620940D01*
X79732130Y-66870580D01*
X79732130Y-67731640D01*
X77434400Y-67731640D01*
X77390673Y-67665073D01*
X77318360Y-67616260D01*
X77318360Y-65290440D01*
X78486000Y-65290440D01*
X78728123Y-65243463D01*
X78940927Y-65103673D01*
X79083377Y-64892640D01*
X79133440Y-64643000D01*
X79133440Y-63119000D01*
X79086463Y-62876877D01*
X78946673Y-62664073D01*
X78735640Y-62521623D01*
X78486000Y-62471560D01*
X76454000Y-62471560D01*
X76211877Y-62518537D01*
X75999073Y-62658327D01*
X75856623Y-62869360D01*
X75806560Y-63119000D01*
X75806560Y-63906204D01*
X75800742Y-63912022D01*
X75608031Y-64200434D01*
X75540360Y-64540640D01*
X75540360Y-67472560D01*
X75230000Y-67472560D01*
X74987877Y-67519537D01*
X74930705Y-67557092D01*
X74879640Y-67522623D01*
X74630000Y-67472560D01*
X74319640Y-67472560D01*
X74319640Y-64540640D01*
X74251969Y-64200435D01*
X74251969Y-64200434D01*
X74059258Y-63912022D01*
X74053440Y-63906204D01*
X74053440Y-63119000D01*
X74006463Y-62876877D01*
X73866673Y-62664073D01*
X73655640Y-62521623D01*
X73406000Y-62471560D01*
X71374000Y-62471560D01*
X71131877Y-62518537D01*
X70919073Y-62658327D01*
X70776623Y-62869360D01*
X70726560Y-63119000D01*
X70726560Y-64643000D01*
X70773537Y-64885123D01*
X70913327Y-65097927D01*
X71124360Y-65240377D01*
X71374000Y-65290440D01*
X72541640Y-65290440D01*
X72541640Y-67615599D01*
X72475073Y-67659327D01*
X72426260Y-67731640D01*
X70127870Y-67731640D01*
X70127870Y-66870580D01*
X70080893Y-66628457D01*
X69941103Y-66415653D01*
X69730070Y-66273203D01*
X69480430Y-66223140D01*
X67679570Y-66223140D01*
X67437447Y-66270117D01*
X67224643Y-66409907D01*
X67082193Y-66620940D01*
X67032130Y-66870580D01*
X67032130Y-70370700D01*
X67079107Y-70612823D01*
X67218897Y-70825627D01*
X67429930Y-70968077D01*
X67679570Y-71018140D01*
X69480430Y-71018140D01*
X69722553Y-70971163D01*
X69935357Y-70831373D01*
X70077807Y-70620340D01*
X70127870Y-70370700D01*
X70127870Y-69509640D01*
X72282560Y-69509640D01*
X72282560Y-70020000D01*
X72329537Y-70262123D01*
X72469327Y-70474927D01*
X72680360Y-70617377D01*
X72930000Y-70667440D01*
X74630000Y-70667440D01*
X74872123Y-70620463D01*
X74929294Y-70582907D01*
X74980360Y-70617377D01*
X75230000Y-70667440D01*
X76930000Y-70667440D01*
X77172123Y-70620463D01*
X77384927Y-70480673D01*
X77527377Y-70269640D01*
X77577440Y-70020000D01*
X77577440Y-69509640D01*
X79732130Y-69509640D01*
X79732130Y-70370700D01*
X79779107Y-70612823D01*
X79918897Y-70825627D01*
X80129930Y-70968077D01*
X80379570Y-71018140D01*
X82180430Y-71018140D01*
X82422553Y-70971163D01*
X82635357Y-70831373D01*
X82777807Y-70620340D01*
X82827870Y-70370700D01*
X82827870Y-80759560D01*
X82815430Y-80759560D01*
X82815430Y-75495729D01*
X82815430Y-73905110D01*
X82815430Y-73333610D01*
X82815430Y-71742991D01*
X82718757Y-71509602D01*
X82540129Y-71330973D01*
X82306740Y-71234300D01*
X82054121Y-71234300D01*
X81565750Y-71234300D01*
X81407000Y-71393050D01*
X81407000Y-73492360D01*
X82656680Y-73492360D01*
X82815430Y-73333610D01*
X82815430Y-73905110D01*
X82656680Y-73746360D01*
X81407000Y-73746360D01*
X81407000Y-75845670D01*
X81565750Y-76004420D01*
X82054121Y-76004420D01*
X82306740Y-76004420D01*
X82540129Y-75907747D01*
X82718757Y-75729118D01*
X82815430Y-75495729D01*
X82815430Y-80759560D01*
X81534000Y-80759560D01*
X81291877Y-80806537D01*
X81153000Y-80897764D01*
X81153000Y-75845670D01*
X81153000Y-73746360D01*
X81153000Y-73492360D01*
X81153000Y-71393050D01*
X80994250Y-71234300D01*
X80505879Y-71234300D01*
X80253260Y-71234300D01*
X80019871Y-71330973D01*
X79841243Y-71509602D01*
X79744570Y-71742991D01*
X79744570Y-73333610D01*
X79903320Y-73492360D01*
X81153000Y-73492360D01*
X81153000Y-73746360D01*
X79903320Y-73746360D01*
X79744570Y-73905110D01*
X79744570Y-75495729D01*
X79841243Y-75729118D01*
X80019871Y-75907747D01*
X80253260Y-76004420D01*
X80505879Y-76004420D01*
X80994250Y-76004420D01*
X81153000Y-75845670D01*
X81153000Y-80897764D01*
X81079073Y-80946327D01*
X80936623Y-81157360D01*
X80912028Y-81280000D01*
X79121000Y-81280000D01*
X78780794Y-81347671D01*
X78492382Y-81540382D01*
X78028694Y-82004069D01*
X77470000Y-81892939D01*
X76819000Y-82022430D01*
X76819000Y-74767440D01*
X76930000Y-74767440D01*
X77172123Y-74720463D01*
X77384927Y-74580673D01*
X77527377Y-74369640D01*
X77577440Y-74120000D01*
X77577440Y-72220000D01*
X77530463Y-71977877D01*
X77390673Y-71765073D01*
X77179640Y-71622623D01*
X76930000Y-71572560D01*
X75230000Y-71572560D01*
X74987877Y-71619537D01*
X74930705Y-71657092D01*
X74879640Y-71622623D01*
X74630000Y-71572560D01*
X72930000Y-71572560D01*
X72687877Y-71619537D01*
X72475073Y-71759327D01*
X72332623Y-71970360D01*
X72282560Y-72220000D01*
X72282560Y-74120000D01*
X72329537Y-74362123D01*
X72469327Y-74574927D01*
X72680360Y-74717377D01*
X72930000Y-74767440D01*
X73041000Y-74767440D01*
X73041000Y-82022430D01*
X72390000Y-81892939D01*
X71831305Y-82004069D01*
X71748618Y-81921382D01*
X71460206Y-81728671D01*
X71120000Y-81661000D01*
X70115430Y-81661000D01*
X70115430Y-75495729D01*
X70115430Y-73905110D01*
X70115430Y-73333610D01*
X70115430Y-71742991D01*
X70018757Y-71509602D01*
X69840129Y-71330973D01*
X69606740Y-71234300D01*
X69354121Y-71234300D01*
X68865750Y-71234300D01*
X68707000Y-71393050D01*
X68707000Y-73492360D01*
X69956680Y-73492360D01*
X70115430Y-73333610D01*
X70115430Y-73905110D01*
X69956680Y-73746360D01*
X68707000Y-73746360D01*
X68707000Y-75845670D01*
X68865750Y-76004420D01*
X69354121Y-76004420D01*
X69606740Y-76004420D01*
X69840129Y-75907747D01*
X70018757Y-75729118D01*
X70115430Y-75495729D01*
X70115430Y-81661000D01*
X68973440Y-81661000D01*
X68973440Y-81534000D01*
X68926463Y-81291877D01*
X68786673Y-81079073D01*
X68575640Y-80936623D01*
X68453000Y-80912028D01*
X68453000Y-75845670D01*
X68453000Y-73746360D01*
X68453000Y-73492360D01*
X68453000Y-71393050D01*
X68294250Y-71234300D01*
X67805879Y-71234300D01*
X67553260Y-71234300D01*
X67319871Y-71330973D01*
X67141243Y-71509602D01*
X67044570Y-71742991D01*
X67044570Y-73333610D01*
X67203320Y-73492360D01*
X68453000Y-73492360D01*
X68453000Y-73746360D01*
X67203320Y-73746360D01*
X67044570Y-73905110D01*
X67044570Y-75495729D01*
X67141243Y-75729118D01*
X67319871Y-75907747D01*
X67553260Y-76004420D01*
X67805879Y-76004420D01*
X68294250Y-76004420D01*
X68453000Y-75845670D01*
X68453000Y-80912028D01*
X68326000Y-80886560D01*
X66294000Y-80886560D01*
X66051877Y-80933537D01*
X65839073Y-81073327D01*
X65696623Y-81284360D01*
X65646560Y-81534000D01*
X65646560Y-83566000D01*
X65693537Y-83808123D01*
X65833327Y-84020927D01*
X65986256Y-84124156D01*
X65784675Y-84425845D01*
X65659000Y-85057655D01*
X65659000Y-85122345D01*
X65784675Y-85754155D01*
X66142567Y-86289778D01*
X66678190Y-86647670D01*
X67310000Y-86773345D01*
X67758600Y-86684112D01*
X69912243Y-88837756D01*
X69912244Y-88837756D01*
X70043635Y-88925549D01*
X70175026Y-89013342D01*
X70175027Y-89013342D01*
X70485000Y-89075000D01*
X72390000Y-89075000D01*
X79375000Y-89075000D01*
X79375000Y-89074999D01*
X79684973Y-89013342D01*
X79684974Y-89013342D01*
X79947756Y-88837756D01*
X81905072Y-86880440D01*
X83566000Y-86880440D01*
X83808123Y-86833463D01*
X84020927Y-86693673D01*
X84163377Y-86482640D01*
X84213440Y-86233000D01*
X84213440Y-89435000D01*
X63595707Y-89435000D01*
X63595707Y-83298116D01*
X63195359Y-82329201D01*
X62454698Y-81587246D01*
X61486483Y-81185208D01*
X60438116Y-81184293D01*
X59469201Y-81584641D01*
X58727246Y-82325302D01*
X58325208Y-83293517D01*
X58324293Y-84341884D01*
X58724641Y-85310799D01*
X59465302Y-86052754D01*
X60433517Y-86454792D01*
X61481884Y-86455707D01*
X62450799Y-86055359D01*
X63192754Y-85314698D01*
X63594792Y-84346483D01*
X63595707Y-83298116D01*
X63595707Y-89435000D01*
X55345000Y-89435000D01*
X55345000Y-41375000D01*
X104675000Y-41375000D01*
X104675000Y-89435000D01*
M02*
